<svg width="678" height="508" viewBox="0 0 678 508" fill="none" xmlns="http://www.w3.org/2000/svg">
<path d="M563.186 448.733L598.648 306.172C599.677 302.039 599.558 297.702 598.301 293.632L538.433 99.4072C537.053 94.927 534.357 90.965 530.699 88.0351C527.041 85.1048 522.584 83.3412 517.91 82.9733L213.111 59C209.577 58.7197 206.026 59.2464 202.726 60.5401C199.425 61.8338 196.463 63.8607 194.061 66.4676L84.1844 185.738C81.9297 188.183 80.2224 191.08 79.1772 194.238C78.132 197.395 77.7722 200.739 78.1223 204.047L103.84 448.733H563.186Z" fill="#E3EDFD"/>
<path d="M146.097 393.289H169.71V295.639H146.097V393.289Z" fill="#B2B6BB"/>
<path d="M169.71 393.289H232.093V295.639H169.71V393.289Z" fill="#DADDDF"/>
<path d="M232.093 333.676V328.914H169.71V333.676H232.093Z" fill="#B2B6BB"/>
<path d="M169.71 333.676V328.914H146.097V333.676H169.71Z" fill="#B2B6BB"/>
<path d="M186.588 286.127C186.588 286.127 167.462 277.449 154.131 280.746L156.79 282.529L155.448 285.674C155.448 285.674 170.265 281.805 186.969 286.643L186.588 286.127Z" fill="#B2B6BB"/>
<path d="M189.862 285.797C189.862 285.797 192.351 285.496 196.055 284.984C205.897 283.633 224.325 280.801 227.636 278.181C232.83 274.062 220.515 256.591 215.181 254.157C209.847 251.723 189.862 285.797 189.862 285.797Z" fill="#DADDDF"/>
<path d="M150.872 264.024C149.983 268.355 190.242 287.066 190.242 287.066C190.242 287.066 189.509 285.085 188.32 281.986C183.968 270.662 173.503 244.386 170.04 244.733C169.623 244.789 169.218 244.909 168.838 245.089C163.529 247.43 151.689 260.037 150.872 264.024Z" fill="#DADDDF"/>
<path d="M169.161 248.954C171.621 253.225 188.046 281.55 188.304 281.974C183.952 270.65 173.487 244.373 170.025 244.72C169.597 244.719 169.18 244.843 168.822 245.076C168.196 245.559 167.806 246.596 169.161 248.954Z" fill="#B2B6BB"/>
<path d="M196.05 284.984C205.892 283.634 224.32 280.802 227.63 278.181C229.12 273.973 225.247 273.63 222.427 273.334C219.608 273.038 196.05 284.984 196.05 284.984Z" fill="#B2B6BB"/>
<path d="M197.371 287.134C197.371 287.134 195.114 282.003 190.674 281.719C186.017 281.423 183.401 287.134 183.401 287.134H197.371Z" fill="#B2B6BB"/>
<path d="M168.712 296.529H233.986V287.173H168.712V296.529Z" fill="#B2B6BB"/>
<path d="M144.107 296.529H168.712V287.173H144.107V296.529Z" fill="#B2B6BB"/>
<path d="M195.089 286.389C195.089 286.389 207.874 282.342 216.501 285.017C226.445 288.103 225.857 300.376 225.857 300.376L223.52 299.415L220.362 300.896C220.362 300.896 219.828 287.9 211.722 286.08C204.711 284.509 195.089 286.389 195.089 286.389Z" fill="#B2B6BB"/>
<path d="M201.647 393.874H206.41V295.639H201.647V393.874Z" fill="#B2B6BB"/>
<path d="M131.683 448.606H230.231L230.832 384.391L132.284 383.222L131.683 448.606Z" fill="#B2B6BB"/>
<path d="M165.867 448.606H247.693L248.295 384.637L166.469 383.472L165.867 448.606Z" fill="#DADDDF"/>
<path d="M250.153 383.227H129.452V390.669H250.153V383.227Z" fill="#B2B6BB"/>
<path d="M171.574 383.227H129.452V390.669H171.574V383.227Z" fill="#B2B6BB"/>
<path d="M416.692 448.721H440.461V100.453H416.692V448.721Z" fill="#DADDDF"/>
<path d="M387.253 330.881H427.605V285.788H387.253V330.881Z" fill="#B2B6BB"/>
<path d="M394.856 285.784H377.999V290.144H378.625V330.882H393.607V290.144H394.856V285.784Z" fill="#858990"/>
<path d="M395.059 290.145H428.578V285.789H395.059V290.145Z" fill="#B2B6BB"/>
<path d="M427.605 290.699H391.766L388.15 290.145H427.605V290.699Z" fill="#858990"/>
<path d="M344.966 184.845H405.74V139.751H344.966V184.845Z" fill="#DADDDF"/>
<path d="M362.84 139.755H344.015V144.111H344.963V184.849H360.944V144.111H362.84V139.755Z" fill="#B2B6BB"/>
<path d="M361.599 144.107H407.175V139.751H361.599V144.107Z" fill="#B2B6BB"/>
<path d="M357.535 144.67H405.735V144.111H357.535V144.67Z" fill="#B2B6BB"/>
<path d="M311.662 184.845H350.037V153.048H311.662V184.845Z" fill="#DADDDF"/>
<path d="M319.791 153.052H310.998V156.121H311.667V184.849H318.453V156.121H319.791V153.052Z" fill="#B2B6BB"/>
<path d="M318.919 156.121H351.054V153.048H318.919V156.121Z" fill="#B2B6BB"/>
<path d="M316.057 156.519H350.042V156.125H316.057V156.519Z" fill="#B2B6BB"/>
<path d="M381.53 139.391C381.53 139.391 389.484 135.78 395.034 137.152L393.925 137.897L394.484 139.205C390.142 138.269 385.637 138.407 381.361 139.607L381.53 139.391Z" fill="#DADDDF"/>
<path d="M380.155 139.277C380.155 139.277 379.122 139.15 377.581 138.938C373.487 138.375 365.816 137.198 364.457 136.106C362.294 134.413 367.421 127.119 369.639 126.111C371.857 125.104 380.155 139.277 380.155 139.277Z" fill="#DADDDF"/>
<path d="M396.389 130.196C396.761 132 380.014 139.785 380.014 139.785C380.014 139.785 380.315 138.959 380.815 137.668C382.626 132.956 386.987 122.005 388.435 122.174C388.608 122.196 388.777 122.246 388.934 122.322C391.123 123.292 396.05 128.537 396.389 130.196Z" fill="#DADDDF"/>
<path d="M388.778 123.922C387.757 125.7 380.921 137.469 380.815 137.668C382.627 132.956 386.987 122.005 388.435 122.174C388.613 122.174 388.786 122.225 388.934 122.322C389.18 122.513 389.345 122.945 388.778 123.922Z" fill="#B2B6BB"/>
<path d="M377.588 138.917C373.494 138.354 365.823 137.177 364.464 136.085C363.842 134.337 365.455 134.193 366.628 134.07C367.8 133.947 377.588 138.917 377.588 138.917Z" fill="#B2B6BB"/>
<path d="M377.043 139.81C377.043 139.81 377.978 137.694 379.828 137.558C381.759 137.436 382.855 139.81 382.855 139.81H377.043Z" fill="#B2B6BB"/>
<path d="M377.99 139.501C377.99 139.501 372.669 137.808 369.1 138.93C364.964 140.2 365.205 145.322 365.205 145.322L366.179 144.92L367.495 145.538C367.495 145.538 367.716 140.132 371.09 139.375C373.985 138.718 377.99 139.501 377.99 139.501Z" fill="#DADDDF"/>
<path d="M303.637 417.712H358.061V372.618H303.637V417.712Z" fill="#DADDDF"/>
<path d="M315.164 372.623H302.688V376.979H303.637V417.716H313.268V376.979H315.164V372.623Z" fill="#B2B6BB"/>
<path d="M313.923 376.974H359.499V372.618H313.923V376.974Z" fill="#B2B6BB"/>
<path d="M309.86 377.537H358.06V376.978H309.86V377.537Z" fill="#B2B6BB"/>
<path d="M291.877 100.448H443.137V105.85H297.228V184.983H443.137V190.91H297.228V448.716H291.877V100.448Z" fill="white"/>
<path d="M268.107 448.721H291.877V100.453H268.107V448.721Z" fill="#DADDDF"/>
<path d="M445.812 448.721V100.453H440.461V448.721H445.812Z" fill="white"/>
<path d="M295.101 336.808H442.112V330.881H295.101V336.808Z" fill="white"/>
<path d="M303.7 330.881H380.734V258.182H303.7V330.881Z" fill="#DADDDF"/>
<path d="M315.96 258.179H302.688V265.206H303.696V330.882H313.941V265.206H315.96V258.179Z" fill="#B2B6BB"/>
<path d="M316.282 265.206H382.259V258.183H316.282V265.206Z" fill="#DADDDF"/>
<path d="M310.315 266.103H380.729V265.201H310.315V266.103Z" fill="#B2B6BB"/>
<path d="M297.226 423.723H442.112V417.711H297.226V423.723Z" fill="white"/>
<path d="M498.826 314.876H480.145V368.681H498.826V314.876Z" fill="#0F55BB"/>
<path d="M480.145 314.876H430.797V368.681H480.145V314.876Z" fill="#0F55BB"/>
<path opacity="0.15" d="M480.145 314.876H430.797V368.681H480.145V314.876Z" fill="black"/>
<path d="M500.401 314.876H480.936V322.276H500.401V314.876Z" fill="#3F4249"/>
<path opacity="0.2" d="M500.401 314.876H480.936V322.276H500.401V314.876Z" fill="white"/>
<path d="M428.46 322.275H480.941V314.875H428.46V322.275Z" fill="#3F4249"/>
<path opacity="0.2" d="M498.826 322.597H480.145V368.677H498.826V322.597Z" fill="white"/>
<path opacity="0.2" d="M480.145 322.597H430.797V368.677H480.145V322.597Z" fill="white"/>
<path d="M401.465 314.876H429.959V233.223H401.465V314.876Z" fill="#0F55BB"/>
<path d="M480.924 233.223H429.958V314.875H480.924V233.223Z" fill="#0F55BB"/>
<path opacity="0.15" d="M478.705 307.717H466.661V312.598H478.705V307.717Z" fill="black"/>
<g opacity="0.2">
<path opacity="0.2" d="M454.029 233.223H446.219L401.46 277.982V285.788L454.029 233.223Z" fill="white"/>
<path opacity="0.2" d="M401.46 245.902V253.712L421.95 233.223H414.144L401.46 245.902Z" fill="white"/>
<path opacity="0.2" d="M480.923 262.674L428.722 314.875H429.958H436.528L480.923 270.485V262.674Z" fill="white"/>
<path opacity="0.2" d="M437.989 233.223H430.179L401.46 261.942V269.748L437.989 233.223Z" fill="white"/>
<path opacity="0.2" d="M480.923 233.223H478.299L401.46 310.058V314.875H404.453L480.923 238.404V233.223Z" fill="white"/>
<path opacity="0.2" d="M470.065 233.223H462.259L401.46 294.018V301.828L470.065 233.223Z" fill="white"/>
<path opacity="0.2" d="M405.91 233.223H401.46V237.672L405.91 233.223Z" fill="white"/>
<path opacity="0.2" d="M476.838 314.875H480.924V310.794L476.838 314.875Z" fill="white"/>
<path opacity="0.2" d="M480.923 254.444V246.638L412.684 314.875H420.494L480.923 254.444Z" fill="white"/>
<path opacity="0.2" d="M480.923 302.561V294.754L460.802 314.875H468.609L480.923 302.561Z" fill="white"/>
<path opacity="0.2" d="M480.923 286.525V278.715L444.762 314.876H452.569L480.923 286.525Z" fill="white"/>
</g>
<path d="M458.538 233.223H451.095V314.875H458.538V233.223Z" fill="#3F4249"/>
<path opacity="0.15" d="M401.465 314.876H429.959V233.223H401.465V314.876Z" fill="black"/>
<path d="M449.423 232.228C449.423 232.228 468.3 223.66 481.457 226.916L478.828 228.672L480.153 231.775C480.153 231.775 465.514 227.965 449.047 232.732L449.423 232.228Z" fill="#3F4249"/>
<path d="M446.193 231.898C446.193 231.898 443.742 231.601 440.085 231.098C430.373 229.76 412.184 226.966 408.92 224.379C403.789 220.32 415.947 203.064 421.197 200.673C426.445 198.281 446.193 231.898 446.193 231.898Z" fill="#61656D"/>
<path d="M484.674 210.397C485.551 214.672 445.829 233.134 445.829 233.134C445.829 233.134 446.553 231.182 447.73 228.122C452.027 216.946 462.373 191.012 465.772 191.372C466.183 191.428 466.581 191.547 466.958 191.723C472.177 194.035 483.87 206.477 484.674 210.397Z" fill="#61656D"/>
<path d="M466.623 195.538C464.198 199.771 447.997 227.711 447.73 228.135C452.027 216.959 462.373 191.025 465.772 191.385C466.196 191.383 466.606 191.505 466.958 191.736C467.576 192.194 467.961 193.21 466.623 195.538Z" fill="#3F4249"/>
<path d="M440.085 231.097C430.373 229.76 412.184 226.966 408.92 224.379C407.447 220.23 411.269 219.892 414.055 219.6C416.84 219.307 440.085 231.097 440.085 231.097Z" fill="#3F4249"/>
<path d="M438.781 233.219C438.781 233.219 441.007 228.139 445.393 227.872C449.969 227.58 452.59 233.219 452.59 233.219H438.781Z" fill="#3F4249"/>
<path d="M441.033 232.486C441.033 232.486 428.413 228.49 419.901 231.132C410.088 234.175 410.668 246.287 410.668 246.287L412.975 245.339L416.091 246.799C416.091 246.799 416.616 233.976 424.62 232.181C431.538 230.628 441.033 232.486 441.033 232.486Z" fill="#3F4249"/>
<path d="M499.131 370.417C499.567 370.417 499.986 370.27 500.325 369.999C500.664 369.728 500.901 369.35 500.998 368.927L518.19 294.132C518.283 293.644 518.181 293.14 517.906 292.726C517.635 292.311 517.212 292.018 516.729 291.908C516.247 291.799 515.739 291.881 515.311 292.138C514.888 292.395 514.579 292.806 514.452 293.285L497.26 368.08C497.197 368.361 497.197 368.653 497.26 368.934C497.328 369.215 497.455 369.478 497.633 369.703C497.81 369.929 498.039 370.111 498.301 370.237C498.56 370.363 498.843 370.429 499.131 370.429V370.417Z" fill="#868A91"/>
<path d="M367.767 423.087H494.69C495.435 423.059 496.138 422.744 496.655 422.207C497.171 421.671 497.459 420.955 497.459 420.211C497.459 419.467 497.171 418.751 496.655 418.215C496.138 417.678 495.435 417.363 494.69 417.335H367.767C366.641 417.335 365.731 416.962 365.227 416.281C364.724 415.599 364.575 414.625 364.863 413.537L372.737 383.878C373.973 379.222 373.609 372.025 371.891 367.538L336.817 274.785C334.87 269.637 330.146 265.756 325.811 265.756H297.261C296.884 265.756 296.51 265.83 296.161 265.974C295.813 266.119 295.496 266.331 295.229 266.597C294.962 266.865 294.75 267.181 294.606 267.53C294.461 267.879 294.387 268.253 294.387 268.63C294.387 269.007 294.461 269.381 294.606 269.73C294.75 270.079 294.962 270.396 295.229 270.663C295.496 270.929 295.813 271.141 296.161 271.286C296.51 271.43 296.884 271.504 297.261 271.504H325.828C327.491 271.504 330.307 273.828 331.437 276.821L366.51 369.57C367.78 372.931 368.085 378.93 367.162 382.401L359.288 412.064C358.878 413.364 358.787 414.744 359.025 416.087C359.262 417.429 359.82 418.695 360.651 419.775C361.482 420.856 362.562 421.72 363.799 422.294C365.036 422.867 366.393 423.134 367.755 423.071L367.767 423.087Z" fill="#868A91"/>
<path d="M412.213 283.511C412.027 283.511 411.843 283.475 411.671 283.404C411.499 283.333 411.343 283.229 411.212 283.098C411.08 282.966 410.977 282.81 410.905 282.639C410.835 282.467 410.798 282.283 410.799 282.097V269.922C410.799 267.744 410.37 265.587 409.536 263.574C408.703 261.562 407.481 259.734 405.941 258.194C404.401 256.653 402.573 255.431 400.56 254.598C398.548 253.764 396.391 253.335 394.213 253.335C392.034 253.335 389.878 253.764 387.865 254.598C385.853 255.431 384.025 256.653 382.484 258.194C380.944 259.734 379.723 261.562 378.889 263.574C378.056 265.587 377.627 267.744 377.627 269.922V282.097C377.627 282.283 377.59 282.466 377.519 282.638C377.448 282.809 377.343 282.965 377.212 283.097C377.081 283.228 376.925 283.332 376.754 283.403C376.582 283.474 376.398 283.511 376.213 283.511C376.027 283.511 375.843 283.474 375.671 283.403C375.5 283.332 375.344 283.228 375.213 283.097C375.082 282.965 374.977 282.809 374.906 282.638C374.835 282.466 374.799 282.283 374.799 282.097V269.922C374.799 264.773 376.844 259.834 380.485 256.194C384.126 252.553 389.064 250.508 394.213 250.508C399.362 250.508 404.3 252.553 407.941 256.194C411.581 259.834 413.627 264.773 413.627 269.922V282.097C413.627 282.283 413.59 282.466 413.519 282.638C413.448 282.809 413.344 282.965 413.213 283.097C413.081 283.228 412.926 283.332 412.754 283.403C412.583 283.474 412.399 283.511 412.213 283.511Z" fill="#21252B"/>
<path d="M416.7 276.365H349.419L342.968 370.34H410.248L416.7 276.365Z" fill="#3F4249"/>
<path d="M428.189 276.365H416.7L410.248 370.34H435.8L428.189 276.365Z" fill="#61656D"/>
<path d="M410.248 370.341L423.045 362.132L435.8 370.341H410.248Z" fill="#868A91"/>
<path d="M423.045 362.132V276.365H428.189L435.8 370.34L423.045 362.132Z" fill="#3F4249"/>
<path d="M363.356 285.801C364.088 285.801 364.805 285.584 365.414 285.177C366.023 284.77 366.497 284.191 366.778 283.515C367.058 282.838 367.132 282.093 366.989 281.375C366.846 280.656 366.493 279.996 365.975 279.478C365.457 278.96 364.797 278.607 364.078 278.464C363.36 278.321 362.615 278.395 361.938 278.675C361.261 278.955 360.683 279.43 360.276 280.039C359.869 280.648 359.651 281.364 359.651 282.097C359.651 282.584 359.746 283.066 359.932 283.515C360.118 283.965 360.391 284.373 360.735 284.718C361.079 285.062 361.488 285.334 361.937 285.521C362.387 285.706 362.869 285.802 363.356 285.801ZM363.356 280.747C363.624 280.747 363.886 280.826 364.109 280.975C364.332 281.124 364.505 281.336 364.608 281.584C364.71 281.832 364.736 282.104 364.684 282.367C364.631 282.63 364.502 282.871 364.312 283.061C364.122 283.25 363.88 283.379 363.617 283.431C363.354 283.482 363.082 283.455 362.834 283.352C362.587 283.249 362.376 283.074 362.227 282.851C362.079 282.628 362 282.365 362.001 282.097C362.001 281.919 362.036 281.744 362.104 281.579C362.172 281.415 362.272 281.266 362.398 281.141C362.524 281.016 362.673 280.916 362.838 280.848C363.002 280.781 363.178 280.746 363.356 280.747Z" fill="#21252B"/>
<path d="M399.351 285.801C400.084 285.802 400.801 285.586 401.41 285.179C402.02 284.773 402.496 284.194 402.776 283.517C403.057 282.841 403.131 282.096 402.989 281.377C402.847 280.658 402.494 279.998 401.976 279.479C401.458 278.961 400.798 278.608 400.08 278.464C399.361 278.321 398.616 278.394 397.939 278.674C397.262 278.955 396.683 279.43 396.276 280.039C395.869 280.648 395.651 281.364 395.651 282.097C395.651 283.079 396.041 284.02 396.735 284.715C397.428 285.409 398.369 285.8 399.351 285.801ZM399.351 280.747C399.619 280.746 399.882 280.825 400.105 280.973C400.329 281.122 400.503 281.333 400.606 281.581C400.709 281.829 400.737 282.101 400.684 282.365C400.632 282.628 400.503 282.87 400.313 283.059C400.124 283.249 399.882 283.378 399.619 283.43C399.356 283.482 399.083 283.455 398.835 283.352C398.587 283.249 398.376 283.075 398.228 282.852C398.079 282.628 398 282.366 398.001 282.097C398.001 281.739 398.143 281.396 398.396 281.142C398.65 280.889 398.993 280.747 399.351 280.747Z" fill="#21252B"/>
<path d="M399.356 283.511C399.17 283.511 398.986 283.475 398.813 283.404C398.641 283.333 398.485 283.23 398.353 283.098C398.222 282.967 398.117 282.81 398.046 282.639C397.974 282.467 397.937 282.283 397.937 282.097V269.922C397.973 267.722 397.57 265.536 396.752 263.493C395.935 261.451 394.718 259.591 393.175 258.023C391.631 256.454 389.792 255.209 387.762 254.359C385.732 253.508 383.554 253.07 381.354 253.07C379.153 253.07 376.975 253.508 374.945 254.359C372.915 255.209 371.076 256.454 369.532 258.023C367.989 259.591 366.772 261.451 365.955 263.493C365.137 265.536 364.734 267.722 364.769 269.922V282.097C364.769 282.283 364.733 282.466 364.662 282.638C364.591 282.809 364.486 282.965 364.355 283.097C364.224 283.228 364.068 283.332 363.897 283.403C363.725 283.474 363.541 283.511 363.355 283.511C363.17 283.511 362.986 283.474 362.814 283.403C362.643 283.332 362.487 283.228 362.356 283.097C362.225 282.965 362.12 282.809 362.049 282.638C361.978 282.466 361.941 282.283 361.941 282.097V269.922C361.941 264.773 363.987 259.834 367.628 256.194C371.269 252.553 376.207 250.508 381.356 250.508C386.505 250.508 391.443 252.553 395.083 256.194C398.724 259.834 400.77 264.773 400.77 269.922V282.097C400.77 282.283 400.733 282.466 400.662 282.638C400.591 282.809 400.487 282.965 400.356 283.097C400.224 283.228 400.069 283.332 399.897 283.403C399.725 283.474 399.541 283.511 399.356 283.511Z" fill="#21252B"/>
<path d="M482.079 436.558C482.079 438.434 482.634 440.267 483.675 441.824C484.717 443.382 486.194 444.601 487.926 445.317C489.661 446.037 491.566 446.223 493.403 445.859C495.245 445.495 496.934 444.593 498.259 443.268C499.584 441.939 500.486 440.25 500.854 438.412C501.218 436.575 501.032 434.67 500.316 432.934C499.597 431.203 498.382 429.721 496.824 428.68C495.266 427.639 493.433 427.084 491.558 427.084C490.313 427.084 489.081 427.33 487.93 427.804C486.783 428.278 485.737 428.976 484.856 429.857C483.976 430.737 483.277 431.783 482.799 432.93C482.325 434.082 482.079 435.314 482.079 436.558Z" fill="#868A91"/>
<path d="M491.558 448.733C489.153 448.733 486.804 448.022 484.806 446.684C482.803 445.347 481.245 443.45 480.327 441.228C479.404 439.005 479.167 436.563 479.632 434.205C480.102 431.847 481.262 429.679 482.96 427.977C484.662 426.28 486.829 425.12 489.187 424.65C491.545 424.18 493.988 424.421 496.21 425.344C498.433 426.263 500.333 427.821 501.667 429.819C503.005 431.821 503.716 434.171 503.716 436.575C503.712 439.797 502.429 442.887 500.151 445.169C497.87 447.446 494.784 448.729 491.558 448.733ZM491.558 429.785C490.22 429.785 488.908 430.183 487.794 430.928C486.681 431.673 485.813 432.727 485.301 433.968C484.789 435.204 484.653 436.567 484.916 437.879C485.178 439.196 485.822 440.402 486.77 441.346C487.718 442.294 488.925 442.942 490.237 443.2C491.549 443.463 492.912 443.327 494.149 442.815C495.389 442.303 496.447 441.435 497.188 440.322C497.933 439.208 498.331 437.9 498.331 436.558C498.327 434.763 497.616 433.04 496.346 431.766C495.076 430.496 493.357 429.777 491.558 429.768V429.785Z" fill="#21252B"/>
<path d="M487.435 436.558C487.435 437.375 487.676 438.171 488.129 438.849C488.582 439.53 489.225 440.059 489.979 440.372C490.732 440.682 491.562 440.766 492.362 440.605C493.162 440.449 493.899 440.055 494.475 439.479C495.05 438.899 495.444 438.167 495.605 437.367C495.762 436.567 495.681 435.737 495.368 434.983C495.055 434.23 494.525 433.586 493.848 433.133C493.166 432.681 492.371 432.439 491.554 432.439C490.461 432.439 489.416 432.871 488.641 433.646C487.871 434.416 487.435 435.466 487.435 436.558Z" fill="#21252B"/>
<path d="M478.181 419.011V434.928C478.176 435.369 478.261 435.809 478.439 436.215C478.612 436.622 478.871 436.986 479.192 437.286C479.518 437.587 479.904 437.816 480.323 437.955C480.742 438.099 481.182 438.15 481.622 438.108L489.441 437.498C490.373 437.409 491.236 436.977 491.871 436.292C492.502 435.606 492.862 434.713 492.879 433.777V419.011H478.181Z" fill="#868A91"/>
<path d="M382.131 436.558C382.13 438.434 382.685 440.267 383.726 441.824C384.767 443.382 386.248 444.601 387.979 445.317C389.711 446.037 391.617 446.223 393.456 445.859C395.295 445.495 396.984 444.593 398.31 443.268C399.636 441.939 400.539 440.25 400.906 438.412C401.272 436.575 401.084 434.67 400.367 432.934C399.649 431.203 398.435 429.721 396.876 428.68C395.317 427.639 393.484 427.084 391.61 427.084C389.096 427.084 386.686 428.083 384.909 429.857C383.131 431.635 382.132 434.044 382.131 436.558Z" fill="#868A91"/>
<path d="M391.609 448.733C389.204 448.733 386.853 448.022 384.854 446.684C382.855 445.347 381.296 443.45 380.376 441.228C379.456 439.005 379.215 436.563 379.684 434.205C380.153 431.847 381.311 429.679 383.012 427.977C384.712 426.28 386.878 425.12 389.237 424.65C391.595 424.18 394.04 424.421 396.262 425.344C398.483 426.263 400.382 427.821 401.718 429.819C403.054 431.821 403.767 434.171 403.767 436.575C403.762 439.797 402.48 442.887 400.201 445.169C397.922 447.446 394.832 448.729 391.609 448.733ZM391.609 429.785C390.269 429.785 388.96 430.183 387.846 430.928C386.732 431.673 385.864 432.727 385.351 433.968C384.838 435.204 384.704 436.567 384.965 437.879C385.227 439.196 385.872 440.402 386.819 441.346C387.767 442.294 388.974 442.942 390.287 443.2C391.601 443.463 392.963 443.327 394.201 442.815C395.438 442.303 396.496 441.435 397.24 440.322C397.985 439.208 398.382 437.9 398.382 436.558C398.379 434.763 397.665 433.04 396.395 431.766C395.127 430.496 393.406 429.777 391.609 429.768V429.785Z" fill="#21252B"/>
<path d="M387.485 436.558C387.485 437.375 387.726 438.171 388.179 438.849C388.631 439.53 389.275 440.059 390.029 440.372C390.783 440.682 391.612 440.766 392.412 440.605C393.212 440.449 393.948 440.055 394.525 439.479C395.101 438.899 395.494 438.167 395.653 437.367C395.812 436.567 395.73 435.737 395.417 434.983C395.105 434.23 394.576 433.586 393.897 433.133C393.218 432.681 392.421 432.439 391.604 432.439C390.512 432.439 389.464 432.871 388.692 433.646C387.919 434.416 387.485 435.466 387.485 436.558Z" fill="#21252B"/>
<path d="M378.232 419.011V433.777C378.235 434.691 378.6 435.568 379.248 436.215C379.895 436.863 380.771 437.227 381.686 437.227H389.467C390.381 437.223 391.257 436.859 391.903 436.215C392.549 435.568 392.914 434.691 392.917 433.777V419.011H378.232Z" fill="#868A91"/>
<path d="M373.436 380.412H373.588L499.284 370.417C499.758 370.339 500.185 370.085 500.482 369.706C500.778 369.327 500.922 368.851 500.884 368.372C500.846 367.892 500.63 367.444 500.278 367.117C499.923 366.79 499.461 366.608 498.979 366.607L373.283 376.58C372.784 376.613 372.317 376.839 371.983 377.211C371.648 377.582 371.472 378.071 371.492 378.571C371.511 379.07 371.726 379.543 372.089 379.887C372.452 380.23 372.936 380.419 373.436 380.412Z" fill="#868A91"/>
<path d="M498.365 368.325C498.581 368.326 498.792 368.252 498.962 368.117C499.131 367.981 499.25 367.792 499.296 367.58L516.103 293.92C516.132 293.798 516.132 293.671 516.111 293.547C516.09 293.423 516.047 293.305 515.98 293.198C515.844 292.983 515.628 292.832 515.383 292.775C515.133 292.719 514.875 292.764 514.659 292.899C514.443 293.034 514.291 293.249 514.236 293.497L497.429 367.157C497.4 367.28 497.395 367.407 497.417 367.531C497.438 367.655 497.484 367.773 497.552 367.88C497.62 367.986 497.704 368.079 497.806 368.151C497.912 368.224 498.026 368.276 498.149 368.304C498.221 368.319 498.293 368.327 498.365 368.325Z" fill="#B2B6BB"/>
<path d="M373.05 378.303H373.127L498.433 368.325C498.678 368.294 498.898 368.169 499.055 367.977C499.212 367.786 499.288 367.542 499.267 367.296C499.245 367.05 499.135 366.822 498.949 366.657C498.767 366.492 498.526 366.405 498.28 366.412L372.957 376.386C372.712 376.408 372.485 376.524 372.323 376.709C372.161 376.894 372.076 377.135 372.086 377.38C372.096 377.626 372.199 377.859 372.376 378.031C372.552 378.203 372.787 378.3 373.033 378.303H373.05Z" fill="#B2B6BB"/>
<path d="M340.895 297.743H517.847C518.609 297.743 519.341 297.44 519.879 296.901C520.421 296.362 520.721 295.631 520.721 294.869C520.721 294.106 520.421 293.375 519.879 292.836C519.341 292.297 518.609 291.994 517.847 291.994H340.895C340.132 291.994 339.401 292.297 338.862 292.836C338.323 293.375 338.02 294.106 338.02 294.869C338.02 295.631 338.323 296.362 338.862 296.901C339.401 297.44 340.132 297.743 340.895 297.743Z" fill="#21252B"/>
<path d="M468.135 370.417C468.571 370.415 468.99 370.268 469.328 369.997C469.667 369.727 469.904 369.349 470.002 368.927L487.189 294.132C487.282 293.644 487.18 293.14 486.91 292.726C486.634 292.311 486.211 292.018 485.728 291.908C485.246 291.799 484.738 291.881 484.315 292.138C483.887 292.395 483.578 292.806 483.451 293.285L466.264 368.08C466.208 368.325 466.2 368.58 466.242 368.828C466.285 369.076 466.374 369.314 466.509 369.528C466.64 369.741 466.818 369.926 467.021 370.072C467.224 370.218 467.457 370.322 467.703 370.379C467.847 370.408 467.991 370.421 468.135 370.417Z" fill="#868A91"/>
<path d="M336.771 423.087H463.69C464.435 423.059 465.137 422.744 465.654 422.207C466.17 421.671 466.458 420.955 466.458 420.211C466.458 419.467 466.17 418.751 465.654 418.215C465.137 417.678 464.435 417.363 463.69 417.335H336.771C335.641 417.335 334.735 416.962 334.231 416.281C333.964 415.882 333.792 415.427 333.73 414.951C333.667 414.475 333.716 413.991 333.872 413.537L341.746 383.878C342.982 379.222 342.592 372.025 340.899 367.538L305.817 274.785C303.87 269.637 299.145 265.756 294.832 265.756H289.248C288.87 265.756 288.497 265.83 288.148 265.974C287.799 266.119 287.482 266.331 287.215 266.597C286.948 266.865 286.737 267.181 286.592 267.53C286.448 267.879 286.374 268.253 286.374 268.63C286.374 269.007 286.448 269.381 286.592 269.73C286.737 270.079 286.948 270.396 287.215 270.663C287.482 270.929 287.799 271.141 288.148 271.286C288.497 271.43 288.87 271.504 289.248 271.504H294.832C296.495 271.504 299.306 273.828 300.437 276.821L335.51 369.57C336.78 372.931 337.085 378.93 336.166 382.401L328.288 412.064C327.877 413.364 327.787 414.744 328.024 416.087C328.261 417.429 328.819 418.695 329.65 419.775C330.482 420.856 331.562 421.72 332.798 422.294C334.035 422.867 335.393 423.134 336.754 423.071L336.771 423.087Z" fill="#868A91"/>
<path d="M339.09 419.638H464.862C465.218 419.638 465.561 419.496 465.81 419.244C466.064 418.993 466.204 418.651 466.204 418.296C466.204 417.94 466.064 417.598 465.81 417.347C465.561 417.095 465.218 416.954 464.862 416.954H339.09C337.477 416.954 336.127 416.365 335.28 415.294C334.433 414.223 334.217 412.754 334.624 411.209L342.201 381.952C343.323 377.634 342.951 370.721 341.355 366.547L306.282 273.795C304.588 269.287 300.38 265.752 296.731 265.752H291.143C290.788 265.752 290.446 265.893 290.195 266.145C289.943 266.396 289.801 266.738 289.801 267.094C289.801 267.449 289.943 267.791 290.195 268.042C290.446 268.294 290.788 268.436 291.143 268.436H296.757C299.297 268.436 302.505 271.323 303.797 274.739L338.87 367.491C340.258 371.162 340.597 377.478 339.615 381.275L332.033 410.532C331.415 412.915 331.817 415.188 333.163 416.932C334.509 418.677 336.605 419.638 339.09 419.638Z" fill="#B2B6BB"/>
<path d="M450.748 436.558C450.748 438.434 451.303 440.267 452.344 441.824C453.386 443.387 454.867 444.601 456.599 445.317C458.33 446.037 460.235 446.223 462.077 445.859C463.914 445.495 465.603 444.589 466.928 443.264C468.257 441.939 469.159 440.25 469.523 438.408C469.891 436.571 469.701 434.666 468.985 432.934C468.266 431.199 467.051 429.721 465.489 428.68C463.931 427.639 462.098 427.084 460.222 427.084C458.978 427.084 457.746 427.33 456.599 427.804C455.447 428.282 454.402 428.981 453.525 429.857C452.645 430.737 451.946 431.783 451.472 432.93C450.994 434.082 450.748 435.314 450.748 436.558Z" fill="white"/>
<path d="M460.223 448.733C457.818 448.733 455.468 448.018 453.47 446.684C451.468 445.347 449.914 443.446 448.992 441.223C448.073 439.005 447.832 436.558 448.301 434.2C448.771 431.842 449.931 429.675 451.633 427.977C453.331 426.276 455.498 425.12 457.856 424.65C460.214 424.18 462.661 424.421 464.879 425.344C467.102 426.263 468.998 427.821 470.336 429.823C471.674 431.821 472.385 434.171 472.385 436.575C472.381 439.801 471.098 442.891 468.82 445.169C466.539 447.451 463.448 448.733 460.223 448.733ZM460.223 429.785C458.885 429.785 457.572 430.183 456.459 430.928C455.346 431.673 454.478 432.727 453.966 433.968C453.453 435.204 453.318 436.567 453.58 437.879C453.839 439.196 454.486 440.402 455.435 441.346C456.379 442.294 457.585 442.942 458.902 443.2C460.214 443.463 461.577 443.327 462.813 442.815C464.054 442.303 465.112 441.435 465.853 440.322C466.598 439.208 466.996 437.9 466.996 436.558C466.992 434.759 466.28 433.036 465.01 431.766C463.74 430.492 462.022 429.777 460.223 429.768V429.785Z" fill="#21252B"/>
<path d="M456.104 436.558C456.104 437.375 456.345 438.171 456.798 438.849C457.251 439.53 457.894 440.059 458.648 440.372C459.401 440.682 460.231 440.766 461.031 440.605C461.831 440.449 462.564 440.055 463.144 439.479C463.719 438.899 464.113 438.167 464.27 437.367C464.43 436.567 464.35 435.737 464.037 434.983C463.723 434.23 463.194 433.586 462.517 433.133C461.835 432.681 461.04 432.439 460.223 432.439C459.13 432.439 458.08 432.871 457.31 433.646C456.54 434.416 456.104 435.466 456.104 436.558Z" fill="#21252B"/>
<path d="M447.184 419.011V434.928C447.175 435.369 447.264 435.809 447.438 436.215C447.611 436.622 447.87 436.986 448.191 437.286C448.517 437.587 448.903 437.816 449.322 437.955C449.737 438.099 450.181 438.15 450.621 438.108L458.44 437.498C459.372 437.409 460.235 436.977 460.87 436.292C461.505 435.606 461.865 434.713 461.882 433.777V419.011H447.184Z" fill="#B2B6BB"/>
<path d="M350.799 436.558C350.798 438.434 351.354 440.267 352.395 441.824C353.436 443.382 354.916 444.601 356.648 445.317C358.38 446.037 360.285 446.223 362.124 445.859C363.963 445.495 365.652 444.593 366.979 443.268C368.305 441.939 369.208 440.25 369.574 438.412C369.94 436.575 369.752 434.67 369.035 432.934C368.318 431.203 367.103 429.721 365.544 428.68C363.985 427.639 362.153 427.084 360.278 427.084C359.033 427.084 357.801 427.33 356.651 427.804C355.501 428.278 354.456 428.976 353.576 429.857C352.695 430.737 351.997 431.783 351.521 432.93C351.044 434.082 350.799 435.314 350.799 436.558Z" fill="white"/>
<path d="M360.279 448.733C357.874 448.733 355.523 448.022 353.524 446.684C351.525 445.347 349.966 443.45 349.046 441.228C348.126 439.005 347.885 436.563 348.354 434.205C348.823 431.847 349.981 429.679 351.682 427.977C353.382 426.28 355.548 425.12 357.907 424.65C360.265 424.18 362.71 424.421 364.932 425.344C367.153 426.263 369.052 427.821 370.388 429.819C371.724 431.821 372.437 434.171 372.437 436.575C372.432 439.797 371.15 442.887 368.871 445.169C366.592 447.446 363.502 448.729 360.279 448.733ZM360.279 429.785C358.939 429.785 357.63 430.183 356.516 430.928C355.402 431.673 354.534 432.727 354.021 433.968C353.508 435.204 353.374 436.567 353.635 437.879C353.897 439.196 354.542 440.402 355.489 441.346C356.437 442.294 357.643 442.942 358.958 443.2C360.271 443.463 361.633 443.327 362.871 442.815C364.109 442.303 365.166 441.435 365.911 440.322C366.655 439.208 367.052 437.9 367.052 436.558C367.049 434.763 366.334 433.04 365.065 431.766C363.797 430.496 362.076 429.777 360.279 429.768V429.785Z" fill="#21252B"/>
<path d="M356.156 436.558C356.155 437.375 356.396 438.171 356.849 438.849C357.301 439.53 357.945 440.059 358.699 440.372C359.453 440.682 360.282 440.766 361.082 440.605C361.883 440.449 362.618 440.055 363.195 439.479C363.771 438.899 364.164 438.167 364.323 437.367C364.482 436.567 364.4 435.737 364.087 434.983C363.775 434.23 363.246 433.586 362.567 433.133C361.888 432.681 361.091 432.439 360.274 432.439C359.182 432.439 358.134 432.871 357.362 433.646C356.59 434.416 356.156 435.466 356.156 436.558Z" fill="#21252B"/>
<path d="M347.236 419.011V433.777C347.239 434.691 347.604 435.568 348.25 436.215C348.897 436.859 349.772 437.223 350.686 437.227H358.48C359.394 437.227 360.271 436.863 360.918 436.215C361.566 435.568 361.931 434.691 361.934 433.777V419.011H347.236Z" fill="#B2B6BB"/>
<path d="M446.401 371.759C446.773 371.759 447.133 371.623 447.408 371.378C447.688 371.133 447.87 370.794 447.916 370.425L457.738 295.237C457.776 295.032 457.772 294.822 457.725 294.619C457.678 294.416 457.589 294.225 457.467 294.057C457.344 293.889 457.187 293.747 457.01 293.641C456.832 293.535 456.633 293.466 456.425 293.439C456.218 293.412 456.01 293.428 455.807 293.484C455.608 293.541 455.422 293.637 455.261 293.768C455.096 293.899 454.965 294.061 454.867 294.245C454.77 294.43 454.711 294.632 454.694 294.839L444.877 370.027C444.851 370.227 444.864 370.43 444.915 370.624C444.97 370.818 445.059 371 445.182 371.16C445.304 371.32 445.457 371.454 445.63 371.554C445.804 371.655 445.999 371.72 446.198 371.746L446.401 371.759Z" fill="#868A91"/>
<path d="M447.167 370.993C447.353 370.991 447.531 370.923 447.671 370.8C447.811 370.677 447.899 370.508 447.925 370.324L457.742 295.135C457.755 295.036 457.746 294.934 457.721 294.837C457.695 294.74 457.653 294.649 457.589 294.569C457.53 294.489 457.454 294.423 457.365 294.372C457.276 294.322 457.183 294.289 457.081 294.276C456.98 294.263 456.878 294.27 456.785 294.296C456.688 294.322 456.595 294.367 456.514 294.428C456.434 294.49 456.37 294.566 456.319 294.653C456.269 294.74 456.235 294.837 456.222 294.936L446.405 370.125C446.384 370.325 446.439 370.525 446.562 370.683C446.684 370.841 446.867 370.945 447.065 370.971L447.167 370.993Z" fill="#B2B6BB"/>
<path d="M424.222 372.88C424.62 372.88 425.001 372.725 425.285 372.449C425.573 372.172 425.742 371.796 425.755 371.399L428.456 296.41C428.468 296.003 428.325 295.608 428.045 295.31C427.77 295.012 427.385 294.837 426.978 294.822C426.572 294.808 426.174 294.955 425.878 295.232C425.581 295.509 425.404 295.893 425.391 296.299L422.69 371.289C422.682 371.49 422.714 371.691 422.784 371.88C422.854 372.069 422.961 372.242 423.098 372.39C423.235 372.537 423.401 372.656 423.583 372.74C423.77 372.823 423.964 372.87 424.167 372.876L424.222 372.88Z" fill="#868A91"/>
<path d="M424.989 372.11C425.188 372.11 425.378 372.034 425.522 371.896C425.666 371.759 425.746 371.572 425.755 371.373L428.456 296.384C428.464 296.181 428.392 295.983 428.252 295.834C428.113 295.686 427.922 295.598 427.719 295.59C427.516 295.583 427.317 295.657 427.169 295.796C427.021 295.934 426.932 296.126 426.923 296.329L424.222 371.318C424.218 371.419 424.235 371.519 424.269 371.613C424.307 371.708 424.358 371.794 424.426 371.867C424.498 371.941 424.578 372 424.671 372.042C424.76 372.084 424.862 372.107 424.959 372.11H424.989Z" fill="#B2B6BB"/>
<path d="M403.395 375.141H403.501C403.702 375.128 403.898 375.075 404.078 374.985C404.259 374.896 404.42 374.772 404.553 374.62C404.685 374.468 404.787 374.292 404.851 374.101C404.915 373.91 404.941 373.708 404.927 373.507L399.572 294.585C399.558 294.384 399.506 294.188 399.416 294.007C399.326 293.827 399.202 293.666 399.05 293.533C398.899 293.401 398.722 293.3 398.531 293.235C398.341 293.171 398.139 293.145 397.938 293.158C397.737 293.172 397.541 293.225 397.36 293.314C397.18 293.404 397.019 293.528 396.886 293.68C396.754 293.832 396.652 294.008 396.588 294.199C396.524 294.39 396.498 294.592 396.511 294.792L401.866 373.711C401.892 374.098 402.065 374.462 402.348 374.727C402.632 374.993 403.006 375.141 403.395 375.141Z" fill="#868A91"/>
<path d="M404.161 374.375H404.216C404.317 374.368 404.415 374.342 404.504 374.298C404.595 374.253 404.675 374.192 404.741 374.116C404.807 374.041 404.857 373.953 404.89 373.858C404.922 373.763 404.934 373.662 404.928 373.562L399.573 294.64C399.567 294.539 399.541 294.44 399.496 294.35C399.452 294.26 399.39 294.179 399.313 294.112C399.238 294.046 399.149 293.996 399.053 293.964C398.957 293.933 398.856 293.921 398.755 293.929C398.553 293.943 398.364 294.037 398.231 294.19C398.098 294.343 398.03 294.543 398.044 294.746L403.399 373.663C403.413 373.857 403.499 374.038 403.64 374.17C403.781 374.302 403.968 374.375 404.161 374.375Z" fill="#B2B6BB"/>
<path d="M382.562 376.767C382.649 376.773 382.737 376.773 382.825 376.767C383.025 376.735 383.217 376.663 383.389 376.556C383.561 376.449 383.711 376.31 383.829 376.144C383.947 375.98 384.031 375.793 384.077 375.595C384.122 375.398 384.128 375.193 384.095 374.993L370.163 294.56C370.094 294.159 369.868 293.802 369.536 293.567C369.203 293.333 368.791 293.24 368.391 293.309C367.99 293.378 367.633 293.603 367.398 293.936C367.164 294.268 367.071 294.68 367.14 295.08L381.072 375.514C381.136 375.863 381.32 376.18 381.591 376.408C381.864 376.637 382.206 376.764 382.562 376.767Z" fill="#B2B6BB"/>
<path d="M381.796 376.013C381.839 376.017 381.883 376.017 381.927 376.013C382.026 375.996 382.121 375.96 382.206 375.906C382.291 375.853 382.365 375.783 382.424 375.701C382.482 375.618 382.523 375.526 382.545 375.427C382.567 375.329 382.57 375.227 382.553 375.128L379.616 358.14C379.58 357.939 379.467 357.761 379.301 357.644C379.135 357.527 378.929 357.481 378.729 357.516C378.528 357.55 378.35 357.663 378.233 357.83C378.116 357.996 378.069 358.202 378.104 358.403L381.042 375.37C381.071 375.549 381.163 375.712 381.301 375.829C381.439 375.948 381.614 376.012 381.796 376.013Z" fill="#868A91"/>
<path d="M378.859 359.046C378.903 359.051 378.947 359.051 378.99 359.046C379.191 359.011 379.37 358.898 379.487 358.731C379.605 358.565 379.651 358.358 379.617 358.157L368.61 294.657C368.593 294.558 368.557 294.463 368.503 294.378C368.449 294.293 368.379 294.219 368.297 294.161C368.215 294.103 368.123 294.061 368.024 294.039C367.926 294.016 367.824 294.014 367.725 294.031C367.626 294.048 367.531 294.084 367.446 294.138C367.361 294.191 367.287 294.261 367.229 294.343C367.17 294.426 367.129 294.518 367.107 294.617C367.085 294.715 367.082 294.816 367.099 294.916L378.106 358.416C378.137 358.593 378.23 358.753 378.368 358.868C378.506 358.983 378.679 359.046 378.859 359.046Z" fill="#868A91"/>
<path d="M351.291 376.767C351.379 376.773 351.466 376.773 351.554 376.767C351.754 376.735 351.946 376.663 352.118 376.556C352.291 376.449 352.44 376.31 352.558 376.144C352.676 375.98 352.761 375.793 352.806 375.595C352.852 375.398 352.858 375.193 352.824 374.993L338.892 294.56C338.823 294.159 338.598 293.802 338.265 293.567C337.933 293.333 337.521 293.24 337.12 293.309C336.72 293.378 336.362 293.603 336.128 293.936C335.893 294.268 335.8 294.68 335.869 295.08L349.801 375.514C349.865 375.863 350.049 376.18 350.321 376.408C350.593 376.637 350.936 376.764 351.291 376.767Z" fill="#B2B6BB"/>
<path d="M350.521 376.013C350.564 376.017 350.608 376.017 350.652 376.013C350.752 375.996 350.846 375.96 350.931 375.906C351.017 375.853 351.091 375.783 351.149 375.701C351.207 375.618 351.249 375.526 351.271 375.427C351.293 375.329 351.296 375.227 351.279 375.128L348.345 358.14C348.31 357.939 348.197 357.761 348.031 357.644C347.864 357.527 347.659 357.481 347.458 357.516C347.258 357.55 347.08 357.663 346.962 357.83C346.845 357.996 346.799 358.202 346.834 358.403L349.771 375.37C349.801 375.548 349.892 375.711 350.029 375.828C350.166 375.946 350.34 376.011 350.521 376.013Z" fill="#868A91"/>
<path d="M347.587 359.046C347.632 359.051 347.677 359.051 347.723 359.046C347.922 359.01 348.1 358.897 348.217 358.73C348.333 358.563 348.379 358.358 348.344 358.157L337.338 294.657C337.321 294.558 337.285 294.463 337.231 294.378C337.177 294.293 337.108 294.219 337.025 294.161C336.943 294.103 336.851 294.061 336.752 294.039C336.654 294.016 336.553 294.014 336.453 294.031C336.354 294.048 336.259 294.084 336.174 294.138C336.089 294.191 336.015 294.261 335.957 294.343C335.898 294.426 335.857 294.518 335.835 294.617C335.813 294.715 335.81 294.816 335.827 294.916L346.833 358.416C346.865 358.593 346.958 358.753 347.096 358.868C347.234 358.983 347.407 359.046 347.587 359.046Z" fill="#868A91"/>
<path d="M342.434 380.411H342.587L468.283 370.416C468.55 370.417 468.812 370.363 469.053 370.257C469.299 370.152 469.515 369.996 469.697 369.802C469.875 369.607 470.014 369.377 470.103 369.127C470.188 368.876 470.222 368.61 470.201 368.346C470.18 368.082 470.103 367.824 469.981 367.59C469.854 367.357 469.68 367.152 469.473 366.988C469.261 366.825 469.024 366.707 468.766 366.641C468.507 366.575 468.241 366.563 467.978 366.606L342.286 376.58C341.788 376.613 341.322 376.839 340.987 377.21C340.653 377.581 340.476 378.068 340.496 378.568C340.515 379.067 340.728 379.539 341.09 379.884C341.453 380.228 341.935 380.417 342.434 380.411Z" fill="#868A91"/>
<path d="M467.36 368.326C467.576 368.326 467.787 368.253 467.957 368.117C468.13 367.982 468.249 367.793 468.295 367.58L485.102 293.92C485.14 293.795 485.148 293.663 485.131 293.533C485.115 293.403 485.072 293.277 485.009 293.164C484.941 293.051 484.852 292.953 484.746 292.876C484.64 292.799 484.518 292.744 484.391 292.715C484.264 292.686 484.132 292.683 484.001 292.708C483.874 292.732 483.751 292.782 483.641 292.855C483.531 292.929 483.442 293.023 483.37 293.134C483.298 293.244 483.252 293.368 483.231 293.497L466.424 367.157C466.369 367.405 466.412 367.666 466.547 367.88C466.687 368.095 466.898 368.248 467.148 368.304C467.216 368.32 467.288 368.327 467.36 368.326Z" fill="#B2B6BB"/>
<path d="M342.054 378.303H342.13L467.436 368.325C467.682 368.294 467.906 368.169 468.059 367.977C468.215 367.786 468.291 367.542 468.27 367.296C468.249 367.05 468.139 366.822 467.953 366.657C467.771 366.492 467.529 366.405 467.284 366.412L341.978 376.39C341.732 376.413 341.506 376.529 341.344 376.714C341.182 376.899 341.097 377.139 341.107 377.385C341.117 377.631 341.22 377.863 341.396 378.035C341.572 378.207 341.808 378.304 342.054 378.307V378.303Z" fill="#B2B6BB"/>
<path d="M309.881 297.743H486.833C487.595 297.743 488.328 297.44 488.866 296.901C489.407 296.362 489.708 295.631 489.708 294.869C489.708 294.106 489.407 293.375 488.866 292.836C488.328 292.297 487.595 291.994 486.833 291.994H309.881C309.118 291.994 308.387 292.297 307.848 292.836C307.309 293.375 307.006 294.106 307.006 294.869C307.006 295.631 307.309 296.362 307.848 296.901C308.387 297.44 309.118 297.743 309.881 297.743Z" fill="#21252B"/>
<path d="M346.136 269.664L337.119 262.2L329.266 263.085L310.927 285.242L328.398 299.699L346.733 277.542L346.136 269.664ZM339.091 268.995C338.986 268.907 338.908 268.79 338.869 268.659C338.829 268.528 338.83 268.387 338.87 268.256C338.91 268.125 338.988 268.009 339.095 267.922C339.201 267.835 339.331 267.782 339.468 267.769C339.604 267.756 339.742 267.784 339.863 267.849C339.984 267.914 340.082 268.013 340.147 268.134C340.211 268.256 340.238 268.393 340.224 268.53C340.211 268.666 340.156 268.796 340.069 268.902C339.951 269.043 339.782 269.132 339.599 269.149C339.416 269.167 339.234 269.111 339.091 268.995Z" fill="#0F55BB"/>
<path d="M337.997 270.306C338.364 270.607 338.81 270.792 339.281 270.838C339.751 270.885 340.225 270.791 340.643 270.569C341.061 270.346 341.403 270.005 341.627 269.588C341.851 269.172 341.947 268.698 341.902 268.227C341.857 267.756 341.674 267.309 341.376 266.942C341.077 266.575 340.677 266.304 340.225 266.165C339.773 266.025 339.29 266.022 338.836 266.157C338.382 266.291 337.979 266.557 337.676 266.92C337.473 267.163 337.32 267.443 337.227 267.745C337.133 268.048 337.1 268.365 337.13 268.68C337.16 268.995 337.252 269.301 337.401 269.58C337.55 269.86 337.753 270.107 337.997 270.306ZM339.966 267.923C340.073 268.01 340.151 268.127 340.191 268.259C340.231 268.39 340.231 268.531 340.19 268.663C340.151 268.794 340.072 268.911 339.966 268.998C339.859 269.085 339.729 269.138 339.592 269.152C339.455 269.165 339.318 269.137 339.197 269.072C339.076 269.006 338.977 268.907 338.912 268.785C338.848 268.663 338.821 268.525 338.836 268.388C338.85 268.252 338.905 268.122 338.992 268.016C339.11 267.876 339.278 267.787 339.46 267.769C339.643 267.752 339.825 267.807 339.966 267.923Z" fill="#B2B6BB"/>
<path d="M337.157 275.722L338.85 277.093L321.819 285.674L320.126 284.303L337.157 275.722ZM329.778 269.664L332.775 272.115C332.874 272.195 332.956 272.294 333.016 272.407C333.077 272.518 333.114 272.642 333.127 272.768C333.139 272.895 333.127 273.023 333.09 273.145C333.052 273.266 332.992 273.38 332.911 273.478L328.597 278.723C328.518 278.823 328.419 278.906 328.307 278.967C328.195 279.028 328.072 279.067 327.945 279.079C327.818 279.093 327.689 279.081 327.566 279.042C327.444 279.005 327.331 278.942 327.234 278.859L324.237 276.408C324.137 276.328 324.055 276.23 323.994 276.118C323.933 276.005 323.897 275.882 323.885 275.756C323.87 275.629 323.882 275.5 323.919 275.378C323.956 275.255 324.018 275.142 324.101 275.044L328.394 269.799C328.473 269.7 328.572 269.617 328.684 269.556C328.796 269.495 328.919 269.457 329.046 269.444C329.176 269.427 329.309 269.438 329.435 269.476C329.561 269.514 329.678 269.578 329.778 269.664ZM331.751 282.537L334.748 284.989C334.847 285.068 334.93 285.167 334.991 285.279C335.052 285.391 335.09 285.514 335.104 285.641C335.117 285.768 335.104 285.896 335.067 286.019C335.029 286.141 334.966 286.254 334.883 286.352L330.591 291.597C330.511 291.696 330.413 291.779 330.3 291.84C330.188 291.901 330.065 291.939 329.938 291.952C329.811 291.964 329.682 291.952 329.56 291.914C329.438 291.876 329.325 291.814 329.228 291.732L326.235 289.281C326.135 289.202 326.053 289.103 325.991 288.991C325.93 288.879 325.892 288.756 325.879 288.629C325.866 288.502 325.879 288.374 325.915 288.252C325.953 288.13 326.014 288.016 326.095 287.918L330.388 282.673C330.467 282.573 330.566 282.49 330.678 282.43C330.79 282.369 330.913 282.33 331.039 282.317C331.164 282.306 331.288 282.32 331.407 282.358C331.525 282.396 331.635 282.457 331.73 282.537H331.751ZM330.764 272.674L329.626 271.742C329.604 271.719 329.577 271.701 329.548 271.689C329.518 271.678 329.486 271.673 329.454 271.677C329.422 271.68 329.392 271.691 329.365 271.708C329.338 271.725 329.316 271.749 329.3 271.776L326.235 275.523C326.211 275.544 326.193 275.571 326.181 275.601C326.17 275.63 326.166 275.663 326.169 275.694C326.172 275.726 326.183 275.756 326.2 275.783C326.218 275.81 326.241 275.833 326.269 275.849L327.39 276.767C327.411 276.794 327.437 276.815 327.466 276.83C327.496 276.844 327.529 276.852 327.562 276.852C327.595 276.852 327.628 276.844 327.658 276.83C327.687 276.815 327.713 276.794 327.733 276.767L330.798 273.021C330.826 272.998 330.847 272.969 330.86 272.936C330.872 272.902 330.876 272.866 330.871 272.831C330.865 272.796 330.85 272.763 330.828 272.736C330.806 272.708 330.777 272.686 330.743 272.674H330.764ZM332.737 285.547L331.603 284.616C331.581 284.592 331.554 284.574 331.523 284.563C331.493 284.551 331.461 284.547 331.429 284.55C331.397 284.554 331.366 284.564 331.339 284.582C331.312 284.599 331.289 284.622 331.272 284.65L328.207 288.396C328.185 288.418 328.167 288.445 328.156 288.475C328.145 288.504 328.141 288.536 328.145 288.567C328.148 288.599 328.158 288.629 328.175 288.656C328.192 288.683 328.215 288.705 328.241 288.722L329.363 289.641C329.385 289.666 329.412 289.686 329.443 289.699C329.474 289.712 329.507 289.717 329.54 289.715C329.573 289.713 329.605 289.704 329.634 289.687C329.663 289.67 329.687 289.647 329.706 289.62L332.771 285.873C332.794 285.85 332.811 285.822 332.82 285.792C332.83 285.761 332.833 285.728 332.827 285.696C332.822 285.664 332.809 285.634 332.79 285.608C332.77 285.582 332.745 285.561 332.716 285.547H332.737Z" fill="white"/>
<path d="M339.515 269.291L339.116 269.198C339.142 269.075 342.08 256.701 353.298 256.701H353.777C353.819 256.494 353.874 256.278 353.933 256.1C354.848 253.171 357.32 251.841 360.745 252.442C367.56 253.653 369.016 260.384 369.029 260.452L368.606 260.537C368.606 260.473 367.187 254.009 360.651 252.849C356.287 252.074 354.801 254.631 354.301 256.236C354.25 256.396 354.204 256.561 354.166 256.735C357.946 256.972 360.821 258.737 361.951 261.557C362.696 263.415 362.476 265.367 361.409 266.366C360.562 267.158 359.381 267.251 358.022 266.637C354.708 265.117 353.112 260.562 353.662 257.12H353.239C342.41 257.112 339.54 269.168 339.515 269.291ZM354.111 257.137C353.556 260.422 355.067 264.808 358.234 266.256C359.415 266.798 360.452 266.73 361.151 266.065C362.082 265.176 362.264 263.386 361.574 261.705C360.52 259.025 357.751 257.353 354.106 257.137H354.111Z" fill="#3F4249"/>
<path d="M485.644 236.026L474.239 240.306L470.979 247.854L481.495 275.874L503.58 267.581L493.065 239.565L485.644 236.026ZM481.41 242.05C481.279 242.099 481.131 242.108 480.996 242.075C480.856 242.042 480.729 241.969 480.631 241.865C480.534 241.761 480.471 241.631 480.449 241.49C480.428 241.349 480.445 241.206 480.504 241.076C480.564 240.947 480.661 240.838 480.78 240.763C480.902 240.688 481.042 240.651 481.186 240.656C481.326 240.661 481.465 240.708 481.58 240.791C481.694 240.874 481.783 240.989 481.834 241.123C481.868 241.212 481.885 241.307 481.88 241.402C481.876 241.498 481.851 241.592 481.813 241.678C481.77 241.764 481.715 241.842 481.643 241.906C481.571 241.97 481.487 242.018 481.398 242.05H481.41Z" fill="#21252B"/>
<path d="M482.024 243.713C482.486 243.539 482.888 243.232 483.176 242.831C483.464 242.429 483.625 241.952 483.641 241.458C483.658 240.965 483.527 240.477 483.269 240.057C483.006 239.638 482.63 239.305 482.177 239.101C481.728 238.897 481.228 238.83 480.742 238.91C480.255 238.991 479.802 239.213 479.438 239.551C479.078 239.888 478.828 240.325 478.714 240.805C478.6 241.286 478.633 241.79 478.807 242.252C479.04 242.872 479.51 243.374 480.115 243.648C480.716 243.922 481.402 243.945 482.024 243.713ZM480.894 240.699C481.029 240.649 481.173 240.64 481.309 240.673C481.449 240.706 481.576 240.779 481.673 240.883C481.77 240.987 481.834 241.118 481.855 241.258C481.876 241.399 481.859 241.543 481.8 241.672C481.741 241.802 481.643 241.911 481.525 241.986C481.402 242.06 481.262 242.097 481.118 242.093C480.979 242.088 480.839 242.041 480.725 241.958C480.61 241.874 480.521 241.759 480.471 241.626C480.437 241.537 480.42 241.441 480.424 241.346C480.428 241.25 480.454 241.157 480.492 241.07C480.534 240.984 480.593 240.907 480.661 240.843C480.733 240.779 480.818 240.73 480.907 240.699H480.894Z" fill="#61656D"/>
<path d="M486.474 247.269L488.59 246.464L487.519 266.276L485.403 267.081L486.474 247.269ZM477.16 250.816L480.924 249.381C481.047 249.329 481.178 249.302 481.313 249.302C481.444 249.302 481.576 249.329 481.698 249.381C481.821 249.434 481.931 249.512 482.02 249.61C482.109 249.708 482.181 249.823 482.223 249.948L484.738 256.535C484.793 256.657 484.818 256.788 484.818 256.921C484.818 257.054 484.793 257.184 484.738 257.306C484.687 257.428 484.607 257.537 484.509 257.629C484.416 257.72 484.302 257.79 484.175 257.835L480.411 259.274C480.289 259.327 480.158 259.354 480.026 259.354C479.891 259.354 479.76 259.327 479.637 259.274C479.514 259.222 479.404 259.145 479.315 259.048C479.226 258.951 479.154 258.837 479.112 258.711L476.597 252.124C476.542 252.002 476.517 251.87 476.517 251.737C476.517 251.604 476.542 251.472 476.597 251.35C476.652 251.226 476.733 251.114 476.83 251.022C476.932 250.93 477.05 250.86 477.177 250.816H477.16ZM489.822 255.693L493.586 254.258C493.708 254.211 493.84 254.188 493.971 254.192C494.106 254.197 494.233 254.227 494.356 254.282C494.475 254.336 494.585 254.415 494.674 254.512C494.763 254.608 494.83 254.722 494.877 254.846L497.391 261.433C497.442 261.557 497.463 261.689 497.463 261.822C497.459 261.955 497.43 262.086 497.374 262.207C497.324 262.329 497.243 262.438 497.146 262.529C497.049 262.62 496.934 262.691 496.811 262.737L493.044 264.172C492.921 264.225 492.79 264.252 492.659 264.252C492.527 264.252 492.396 264.225 492.273 264.172C492.151 264.119 492.045 264.042 491.952 263.945C491.863 263.848 491.791 263.734 491.744 263.609L489.23 257.018C489.179 256.897 489.149 256.765 489.149 256.633C489.149 256.5 489.179 256.37 489.23 256.248C489.28 256.118 489.361 256.001 489.467 255.905C489.568 255.809 489.691 255.737 489.822 255.693ZM480.407 251.46L478.976 252.006C478.943 252.013 478.913 252.027 478.888 252.048C478.862 252.069 478.841 252.096 478.828 252.126C478.816 252.155 478.811 252.188 478.811 252.221C478.811 252.254 478.82 252.286 478.837 252.315L480.632 257.022C480.64 257.054 480.653 257.085 480.674 257.11C480.695 257.136 480.725 257.156 480.754 257.17C480.784 257.183 480.818 257.19 480.852 257.188C480.886 257.187 480.915 257.178 480.945 257.162L482.355 256.624C482.388 256.618 482.422 256.604 482.448 256.583C482.477 256.563 482.499 256.535 482.516 256.504C482.532 256.473 482.541 256.438 482.541 256.403C482.541 256.368 482.532 256.334 482.516 256.303L480.721 251.599C480.712 251.569 480.695 251.541 480.67 251.518C480.649 251.495 480.623 251.477 480.594 251.466C480.564 251.455 480.53 251.451 480.496 251.454C480.467 251.458 480.433 251.468 480.407 251.485V251.46ZM493.052 256.336L491.621 256.883C491.588 256.889 491.558 256.904 491.532 256.925C491.507 256.946 491.486 256.973 491.473 257.004C491.456 257.034 491.452 257.068 491.452 257.101C491.456 257.134 491.465 257.167 491.482 257.196L493.277 261.903C493.285 261.936 493.298 261.966 493.319 261.991C493.34 262.017 493.37 262.037 493.399 262.051C493.429 262.064 493.463 262.07 493.497 262.068C493.531 262.065 493.56 262.056 493.59 262.039L495 261.501C495.033 261.495 495.067 261.481 495.093 261.46C495.122 261.439 495.144 261.413 495.16 261.382C495.173 261.351 495.182 261.317 495.182 261.283C495.182 261.249 495.177 261.215 495.16 261.184L493.366 256.476C493.357 256.446 493.34 256.419 493.315 256.396C493.294 256.373 493.268 256.356 493.234 256.345C493.205 256.334 493.175 256.33 493.141 256.333C493.112 256.336 493.082 256.346 493.052 256.362V256.336Z" fill="white"/>
<path d="M481.178 242.147C481.148 242.02 477.876 229.536 466.543 229.798H466.12C466.78 233.363 465.226 238.142 461.814 239.802C460.434 240.471 459.19 240.399 458.309 239.603C457.175 238.57 456.904 236.572 457.632 234.62C458.737 231.657 461.692 229.756 465.62 229.422C465.573 229.244 465.523 229.066 465.463 228.897C464.909 227.25 463.3 224.621 458.77 225.51C451.997 226.873 450.685 233.638 450.672 233.706L450.249 233.634C450.249 233.562 451.612 226.53 458.669 225.108C462.204 224.397 464.816 225.722 465.832 228.744C465.904 228.95 465.967 229.159 466.014 229.371H466.518C478.172 229.121 481.529 241.901 481.559 242.028L481.178 242.147ZM465.705 229.845C461.895 230.154 459.067 231.962 458.013 234.781C457.352 236.546 457.589 238.409 458.58 239.315C459.325 239.992 460.409 240.039 461.632 239.446C464.896 237.842 466.365 233.257 465.705 229.828V229.845Z" fill="#B2B6BB"/>
<path d="M362.569 220.658L369.173 222.851L375.497 228.6C375.621 228.698 375.718 228.824 375.78 228.969C375.843 229.113 375.868 229.271 375.855 229.428C375.842 229.585 375.79 229.736 375.704 229.868C375.617 229.999 375.5 230.108 375.362 230.183C375.142 230.295 374.894 230.339 374.649 230.31C374.404 230.281 374.173 230.179 373.986 230.018L367.555 225.247L362.45 224.544L367.555 225.247L372.86 229.98C372.961 230.059 373.041 230.16 373.097 230.275C373.153 230.391 373.182 230.517 373.182 230.645C373.182 230.772 373.153 230.899 373.097 231.014C373.041 231.129 372.961 231.23 372.86 231.309C372.663 231.428 372.435 231.48 372.206 231.46C371.978 231.439 371.762 231.347 371.59 231.195L365.955 227L358.564 225.878L365.943 226.991L369.482 230.928C369.538 230.993 369.579 231.07 369.601 231.152C369.623 231.235 369.626 231.322 369.61 231.406C369.594 231.49 369.559 231.569 369.507 231.637C369.455 231.706 369.389 231.762 369.312 231.8C369.17 231.86 369.014 231.875 368.864 231.845C368.712 231.815 368.574 231.74 368.466 231.631L363.936 227.91L357.163 226.458L362.569 220.658Z" fill="#FC9D9D"/>
<path d="M362.569 220.658L369.173 222.851L375.497 228.6C375.621 228.698 375.718 228.824 375.78 228.969C375.843 229.113 375.868 229.271 375.855 229.428C375.842 229.585 375.79 229.736 375.704 229.868C375.617 229.999 375.5 230.108 375.362 230.183C375.142 230.295 374.894 230.339 374.649 230.31C374.404 230.281 374.173 230.179 373.986 230.018L367.555 225.247L362.45 224.544L367.555 225.247L372.86 229.98C372.961 230.059 373.041 230.16 373.097 230.275C373.153 230.391 373.182 230.517 373.182 230.645C373.182 230.772 373.153 230.899 373.097 231.014C373.041 231.129 372.961 231.23 372.86 231.309C372.663 231.428 372.435 231.48 372.206 231.46C371.978 231.439 371.762 231.347 371.59 231.195L365.955 227L358.564 225.878L365.943 226.991L369.482 230.928C369.538 230.993 369.579 231.07 369.601 231.152C369.623 231.235 369.626 231.322 369.61 231.406C369.594 231.49 369.559 231.569 369.507 231.637C369.455 231.706 369.389 231.762 369.312 231.8C369.17 231.86 369.014 231.875 368.864 231.845C368.712 231.815 368.574 231.74 368.466 231.631L363.936 227.91L357.163 226.458L362.569 220.658Z" fill="#FC9D9D"/>
<path opacity="0.15" d="M362.569 220.658L369.173 222.851L375.497 228.6C375.621 228.698 375.718 228.824 375.78 228.969C375.843 229.113 375.868 229.271 375.855 229.428C375.842 229.585 375.79 229.736 375.704 229.868C375.617 229.999 375.5 230.108 375.362 230.183C375.142 230.295 374.894 230.339 374.649 230.31C374.404 230.281 374.173 230.179 373.986 230.018L367.555 225.247L362.45 224.544L367.555 225.247L372.86 229.98C372.961 230.059 373.041 230.16 373.097 230.275C373.153 230.391 373.182 230.517 373.182 230.645C373.182 230.772 373.153 230.899 373.097 231.014C373.041 231.129 372.961 231.23 372.86 231.309C372.663 231.428 372.435 231.48 372.206 231.46C371.978 231.439 371.762 231.347 371.59 231.195L365.955 227L358.564 225.878L365.943 226.991L369.482 230.928C369.538 230.993 369.579 231.07 369.601 231.152C369.623 231.235 369.626 231.322 369.61 231.406C369.594 231.49 369.559 231.569 369.507 231.637C369.455 231.706 369.389 231.762 369.312 231.8C369.17 231.86 369.014 231.875 368.864 231.845C368.712 231.815 368.574 231.74 368.466 231.631L363.936 227.91L357.163 226.458L362.569 220.658Z" fill="black"/>
<path d="M377.615 224.202C377.549 224.405 377.406 224.575 377.217 224.673C377.027 224.771 376.807 224.791 376.603 224.727L365.761 222.555C365.57 222.512 365.372 222.509 365.18 222.546C364.987 222.583 364.805 222.66 364.644 222.771L359.61 226.221C358.446 227.068 358.62 228.761 359.953 229.684L362.493 231.378C363.598 232.102 363.996 233.371 363.522 234.341C363.497 234.396 363.461 234.446 363.416 234.486C363.372 234.527 363.32 234.558 363.262 234.578C363.206 234.597 363.145 234.606 363.085 234.601C363.024 234.597 362.966 234.581 362.912 234.553C362.912 234.553 358.869 233.096 357.206 232.478C356.747 232.317 356.26 232.253 355.775 232.288L355.724 232.267C355.076 232.322 354.424 232.322 353.777 232.267C350.964 232.03 348.302 230.893 346.186 229.024L345.441 228.474C345.001 228.133 344.495 227.886 343.955 227.75L338.431 226.298L289.231 215.82C287.2 215.369 285.282 214.51 283.593 213.297C281.903 212.083 280.477 210.539 279.401 208.759L270.168 193.519L244.214 150.648L274.271 150.373L296.064 195.818C296.411 196.539 296.898 197.183 297.497 197.714C298.096 198.244 298.794 198.65 299.552 198.908L350.039 219.287L350.09 219.44C350.672 219.661 351.296 219.756 351.918 219.719L363.611 218.872C363.872 218.825 364.142 218.866 364.377 218.991C366.269 219.533 374.279 222.094 376.887 222.979C377.139 223.054 377.355 223.221 377.49 223.448C377.624 223.675 377.669 223.944 377.615 224.202Z" fill="#FC9D9D"/>
<path opacity="0.1" d="M353.759 232.262C350.953 232.023 348.297 230.888 346.185 229.023L345.44 228.473C345 228.133 344.494 227.886 343.954 227.749L338.43 226.297L289.23 215.82C287.199 215.368 285.281 214.51 283.592 213.297C281.902 212.083 280.476 210.539 279.4 208.758L270.167 193.518L275.417 188.98L284.578 205.401C285.41 206.894 286.532 208.205 287.878 209.258C289.223 210.312 290.765 211.086 292.414 211.535L346.287 226.263L353.759 232.262Z" fill="black"/>
<path d="M293.218 184.438L291.101 185.433L281.788 189.878L271.077 194.983L269.778 195.605L255.897 171.336C255.175 170.07 254.64 168.707 254.309 167.289C253.556 164.004 253.944 160.562 255.41 157.528C256.876 154.494 259.332 152.051 262.374 150.601L262.653 150.478C266.163 148.891 270.154 148.739 273.774 150.055C274.354 150.262 274.92 150.508 275.467 150.791C278.376 152.268 280.712 154.668 282.109 157.616L283.147 159.787L293.218 184.438Z" fill="#0F55BB"/>
<path opacity="0.15" d="M293.218 184.438L291.101 185.433L281.788 189.878L271.077 194.983L269.778 195.605L255.897 171.336C255.175 170.07 254.64 168.707 254.309 167.289C253.556 164.004 253.944 160.562 255.41 157.528C256.876 154.494 259.332 152.051 262.374 150.601L262.653 150.478C266.163 148.891 270.154 148.739 273.774 150.055C274.354 150.262 274.92 150.508 275.467 150.791C278.376 152.268 280.712 154.668 282.109 157.616L283.147 159.787L293.218 184.438Z" fill="black"/>
<path opacity="0.15" d="M271.074 239.459H231.666C231.562 239.459 231.461 239.418 231.388 239.344C231.313 239.27 231.272 239.17 231.272 239.065C231.272 238.961 231.313 238.861 231.388 238.787C231.461 238.713 231.562 238.672 231.666 238.672H271.074C271.178 238.672 271.279 238.713 271.352 238.787C271.426 238.861 271.468 238.961 271.468 239.065C271.468 239.17 271.426 239.27 271.352 239.344C271.279 239.418 271.178 239.459 271.074 239.459Z" fill="black"/>
<path d="M267.014 438.895L297.113 439.615L285.082 431.042C284.088 430.335 283.27 429.408 282.688 428.337C282.105 427.262 281.774 426.072 281.72 424.853L281.297 415.417L264.922 415.456L267.014 438.895Z" fill="#FC9D9D"/>
<path opacity="0.15" d="M270.366 427.871V427.689C270.321 427.186 270.471 426.678 270.786 426.28C271.101 425.882 271.557 425.619 272.059 425.547L281.673 424.142L281.589 422.237H265.527L266.95 438.184L280.074 436.74L275.738 435.047C274.263 434.471 272.979 433.493 272.03 432.223C271.081 430.958 270.504 429.45 270.366 427.871Z" fill="black"/>
<path d="M212.76 438.328H226.311L228.817 415.417L212.84 415.456L212.76 438.328Z" fill="#FC9D9D"/>
<path opacity="0.15" d="M216.15 434.467L216.455 427.427C216.475 426.978 216.651 426.551 216.952 426.216C217.253 425.886 217.661 425.666 218.106 425.602L227.843 424.133L228.063 422.173L212.793 422.199L212.738 438.463L216.15 434.467Z" fill="black"/>
<path d="M211.883 234.841V422.292H229.469L244.789 269.469C244.836 268.986 245.063 268.538 245.424 268.214C245.786 267.889 246.255 267.712 246.741 267.717C247.22 267.72 247.681 267.9 248.036 268.221C248.391 268.543 248.616 268.984 248.667 269.461L264.965 422.284H282.572L276.222 234.832L211.883 234.841Z" fill="#21252B"/>
<path d="M213.818 430.272L214.241 429.848C215.808 428.329 217.913 427.486 220.096 427.512C222.279 427.537 224.364 428.422 225.896 429.98L226.146 430.242C226.919 431.046 227.353 432.117 227.361 433.231V434.983C227.362 435.999 227.513 437.007 227.81 437.976L229.27 442.752C229.624 443.907 229.804 445.11 229.804 446.316V446.926C229.796 447.158 229.742 447.383 229.647 447.595C229.55 447.806 229.414 447.997 229.244 448.153C229.074 448.31 228.875 448.433 228.658 448.513C228.441 448.594 228.21 448.627 227.979 448.619H211.3C211.068 448.627 210.837 448.594 210.619 448.513C210.402 448.433 210.203 448.31 210.033 448.153C209.863 447.997 209.726 447.806 209.629 447.595C209.533 447.383 209.479 447.158 209.47 446.926V446.701C209.473 445.3 209.716 443.907 210.191 442.586L211.884 437.887C212.267 436.821 212.477 435.699 212.506 434.569L212.54 433.235C212.571 432.122 213.028 431.059 213.818 430.272Z" fill="#0F55BB"/>
<path d="M211.444 422.292H230.18L230.566 418.41H211.482L211.444 422.292Z" fill="#3F4249"/>
<path opacity="0.15" d="M211.444 422.292H219.267L219.449 418.41H211.482L211.444 422.292Z" fill="black"/>
<path opacity="0.5" d="M209.462 446.705V446.93C209.47 447.163 209.525 447.391 209.621 447.599C209.717 447.81 209.854 448.001 210.025 448.157C210.194 448.314 210.394 448.437 210.611 448.517C210.828 448.598 211.06 448.632 211.291 448.623H227.971C228.202 448.632 228.432 448.598 228.65 448.517C228.867 448.437 229.066 448.314 229.235 448.157C229.405 448.001 229.542 447.81 229.638 447.599C229.734 447.387 229.787 447.163 229.795 446.93V446.32C229.795 446.083 229.795 445.846 229.77 445.613H209.517C209.484 445.977 209.462 446.341 209.462 446.705Z" fill="black"/>
<path d="M264.928 433.54V445.275C264.928 446.189 265.29 447.065 265.935 447.709C266.581 448.352 267.457 448.716 268.369 448.716H308.26C308.637 448.716 308.998 448.568 309.264 448.302C309.531 448.035 309.681 447.675 309.682 447.298C309.686 445.931 309.257 444.593 308.457 443.484C307.656 442.371 306.525 441.545 305.225 441.113L296.241 438.15L284.811 429.29C284.239 428.845 283.53 428.612 282.805 428.629C282.08 428.646 281.383 428.913 280.832 429.383L275.752 433.718C275.385 434.031 274.944 434.247 274.471 434.344C273.997 434.437 273.508 434.412 273.047 434.268L266.617 432.261C266.419 432.202 266.21 432.19 266.006 432.223C265.803 432.261 265.611 432.346 265.446 432.469C265.281 432.596 265.148 432.757 265.058 432.943C264.968 433.129 264.923 433.333 264.928 433.54Z" fill="#0F55BB"/>
<path opacity="0.5" d="M268.368 448.733H308.259C308.635 448.733 308.996 448.585 309.263 448.319C309.529 448.052 309.68 447.692 309.681 447.315C309.68 446.833 309.625 446.35 309.516 445.88H264.977C265.115 446.68 265.532 447.404 266.152 447.925C266.772 448.446 267.557 448.733 268.368 448.733Z" fill="black"/>
<path d="M284.594 433.955C284.503 433.955 284.415 433.921 284.349 433.857C284.315 433.824 284.288 433.785 284.27 433.743C284.252 433.697 284.242 433.65 284.242 433.603C284.242 433.557 284.252 433.51 284.27 433.468C284.288 433.421 284.315 433.383 284.349 433.349L286.779 430.746C286.847 430.678 286.939 430.64 287.035 430.64C287.131 430.64 287.223 430.678 287.291 430.746C287.324 430.78 287.352 430.818 287.37 430.864C287.388 430.907 287.398 430.953 287.398 431C287.398 431.047 287.388 431.093 287.37 431.14C287.352 431.182 287.324 431.22 287.291 431.254L284.861 433.853C284.826 433.887 284.784 433.912 284.738 433.929C284.692 433.951 284.643 433.955 284.594 433.955Z" fill="white"/>
<path d="M286.516 435.449C286.446 435.449 286.377 435.428 286.319 435.39C286.261 435.352 286.214 435.297 286.186 435.233C286.159 435.17 286.15 435.098 286.162 435.03C286.174 434.958 286.206 434.895 286.254 434.844L288.688 432.24C288.754 432.173 288.844 432.13 288.94 432.126C289.035 432.126 289.128 432.16 289.198 432.228C289.268 432.291 289.308 432.384 289.311 432.477C289.314 432.575 289.278 432.668 289.213 432.736L286.779 435.335C286.745 435.373 286.705 435.398 286.659 435.42C286.614 435.441 286.565 435.449 286.516 435.449Z" fill="white"/>
<path d="M288.439 436.944C288.348 436.944 288.26 436.91 288.193 436.846C288.126 436.778 288.088 436.689 288.088 436.592C288.088 436.499 288.126 436.406 288.193 436.338L290.627 433.739C290.661 433.705 290.7 433.68 290.744 433.658C290.787 433.642 290.834 433.633 290.881 433.633C290.929 433.633 290.976 433.642 291.019 433.658C291.063 433.68 291.102 433.705 291.135 433.739C291.203 433.807 291.24 433.9 291.24 433.993C291.24 434.09 291.203 434.179 291.135 434.247L288.701 436.846C288.666 436.88 288.625 436.905 288.58 436.922C288.535 436.939 288.487 436.948 288.439 436.944Z" fill="white"/>
<path d="M223.098 434.196C223.035 434.196 222.972 434.183 222.916 434.154C221.957 433.701 220.909 433.464 219.847 433.464C218.786 433.464 217.737 433.701 216.778 434.154C216.685 434.179 216.585 434.175 216.496 434.137C216.407 434.099 216.333 434.035 216.287 433.951C216.241 433.862 216.225 433.764 216.243 433.671C216.261 433.574 216.31 433.489 216.384 433.426C217.458 432.905 218.637 432.634 219.832 432.634C221.027 432.634 222.206 432.905 223.28 433.426C223.358 433.472 223.419 433.54 223.455 433.625C223.49 433.705 223.499 433.798 223.479 433.887C223.458 433.976 223.41 434.052 223.342 434.111C223.273 434.171 223.188 434.205 223.098 434.213V434.196Z" fill="white"/>
<path d="M223.097 436.342C223.034 436.342 222.971 436.33 222.915 436.3C221.955 435.847 220.907 435.614 219.845 435.614C218.784 435.614 217.736 435.847 216.776 436.3C216.679 436.351 216.567 436.359 216.463 436.325C216.359 436.296 216.271 436.224 216.217 436.131C216.168 436.033 216.158 435.923 216.189 435.817C216.219 435.716 216.289 435.627 216.383 435.572C217.457 435.051 218.636 434.78 219.831 434.78C221.025 434.78 222.204 435.051 223.279 435.572C223.376 435.623 223.45 435.707 223.485 435.809C223.521 435.915 223.515 436.029 223.469 436.127C223.432 436.194 223.378 436.249 223.313 436.283C223.247 436.321 223.172 436.342 223.097 436.342Z" fill="white"/>
<path d="M223.098 438.408C223.035 438.408 222.972 438.396 222.916 438.366C221.956 437.913 220.908 437.68 219.847 437.68C218.786 437.68 217.738 437.913 216.778 438.366C216.685 438.391 216.585 438.387 216.496 438.349C216.407 438.315 216.333 438.247 216.287 438.163C216.241 438.078 216.225 437.976 216.243 437.883C216.261 437.786 216.31 437.701 216.384 437.638C217.458 437.117 218.637 436.846 219.832 436.846C221.027 436.846 222.206 437.117 223.28 437.638C223.377 437.689 223.452 437.773 223.487 437.879C223.522 437.981 223.517 438.095 223.471 438.192C223.433 438.26 223.38 438.315 223.314 438.353C223.248 438.391 223.174 438.408 223.098 438.408Z" fill="white"/>
<path opacity="0.15" d="M275.408 420.129L258.051 275.844C257.783 273.609 256.706 271.55 255.024 270.055C253.342 268.56 251.17 267.732 248.92 267.729H246.744C247.223 267.732 247.684 267.912 248.039 268.233C248.395 268.555 248.619 268.996 248.67 269.473L264.879 421.45L275.408 420.129Z" fill="black"/>
<path d="M264.466 422.292H283.173L282.881 418.41H264.089L264.466 422.292Z" fill="#3F4249"/>
<path opacity="0.15" d="M264.466 422.292H275.629L275.201 418.41H264.089L264.466 422.292Z" fill="black"/>
<path opacity="0.15" d="M243.049 239.065L219.711 242.232C219.711 242.232 219.088 243.925 218.377 246.376L211.883 249.31V418.381L219.448 418.41L226.289 271.01C246.271 263.856 243.049 239.065 243.049 239.065Z" fill="black"/>
<path opacity="0.15" d="M276.556 264.795L276.691 264.736L273.283 238.798H261.989L264.038 257.581C264.188 258.982 264.667 260.327 265.436 261.507C266.204 262.688 267.241 263.669 268.462 264.373C269.682 265.076 271.052 265.481 272.458 265.554C273.865 265.628 275.269 265.367 276.556 264.795Z" fill="black"/>
<path d="M283.139 159.779L282.762 168.063L281.763 189.869L280.798 211.078L279.007 262.005H210.181L207.125 195.097L205.465 165.176L205.292 162.022C206.322 158.448 208.654 155.389 211.828 153.45L212.137 153.268L228.6 144.086L232.99 141.635L254.424 141.66L257.853 143.146L273.753 150.042L275.447 150.779C278.355 152.256 280.691 154.656 282.089 157.603L283.139 159.779Z" fill="#0F55BB"/>
<path opacity="0.15" d="M272.158 180.48C272.099 180.59 272.035 180.691 271.972 180.797L271.908 180.899L271.756 181.132C269.301 184.734 265.279 184.963 262.629 181.555C260.089 178.321 259.712 172.927 261.596 169.033C261.746 168.724 261.911 168.423 262.091 168.131C262.155 168.029 262.222 167.928 262.29 167.826C262.358 167.725 262.421 167.636 262.489 167.547C262.686 167.275 262.901 167.016 263.133 166.772C263.45 166.437 263.802 166.136 264.182 165.875C265.231 165.13 266.531 164.826 267.802 165.028C269.265 165.325 270.562 166.162 271.434 167.373C274.088 170.773 274.389 176.56 272.158 180.48Z" fill="black"/>
<path d="M265.612 168.533L267.763 171.547L270.709 170.709L269.38 174.578L270.845 178.35L267.869 177.728L265.828 180.89L265.32 176.635L262.594 174.823L265.257 172.817L265.612 168.533Z" fill="#0F55BB"/>
<path opacity="0.2" d="M265.612 168.533L267.763 171.547L270.709 170.709L269.38 174.578L270.845 178.35L267.869 177.728L265.828 180.89L265.32 176.635L262.594 174.823L265.257 172.817L265.612 168.533Z" fill="white"/>
<path opacity="0.15" d="M257.848 143.146L255.804 156.091C255.774 156.279 255.701 156.456 255.589 156.61C255.478 156.763 255.332 156.888 255.163 156.974C254.994 157.061 254.807 157.106 254.618 157.106C254.428 157.107 254.241 157.062 254.072 156.976L228.6 144.086L232.99 141.635L254.423 141.66L257.848 143.146Z" fill="black"/>
<path opacity="0.15" d="M279.007 262.018H210.182L207.125 195.111L205.466 165.189L224.211 166.794C227.038 167.04 229.685 168.287 231.675 170.311C233.665 172.335 234.867 175.003 235.065 177.834L237.419 211.667C237.508 212.987 238.044 214.236 238.939 215.211L279.007 262.018Z" fill="black"/>
<path d="M254.533 142.816L253.297 151.282C253.28 151.395 253.236 151.502 253.17 151.595C253.104 151.688 253.017 151.765 252.917 151.818C252.816 151.872 252.705 151.902 252.591 151.905C252.477 151.908 252.363 151.885 252.26 151.837L233.494 143.087C233.145 142.689 232.963 142.172 232.986 141.643L234.307 122.593L234.565 118.817C235.285 104.284 254.233 116.18 254.233 116.18C254.233 116.18 253.708 121.323 253.598 126.991C253.582 128.122 253.451 129.249 253.208 130.353L253.556 133.608L254.402 141.652L254.445 142.075L254.533 142.816Z" fill="#FC9D9D"/>
<path opacity="0.15" d="M254.461 142.075C243.421 145.627 237.528 131.542 237.528 131.542L253.568 133.617L254.415 141.66L254.461 142.075Z" fill="black"/>
<path d="M255.889 117.06C259.426 117.06 262.294 114.192 262.294 110.655C262.294 107.118 259.426 104.25 255.889 104.25C252.352 104.25 249.484 107.118 249.484 110.655C249.484 114.192 252.352 117.06 255.889 117.06Z" fill="#21252B"/>
<path d="M256.337 105.948C256.337 105.948 263.047 134.159 248.573 136.068C236.026 137.724 234.646 118.204 234.646 118.204L235.242 105.504L256.337 105.948Z" fill="#FC9D9D"/>
<path d="M236.827 118.533C236.827 118.533 237.449 125.954 239.367 126.297C242.237 126.805 248.633 124.375 252.977 126.471C257.32 128.566 257.21 126.251 257.722 123.148C257.722 123.148 258.755 141.377 246.483 139.234C234.21 137.092 235.527 118.707 235.527 118.707L236.827 118.533Z" fill="#21252B"/>
<path d="M255.516 107.708L242.711 108.648C242.33 108.676 241.959 108.779 241.618 108.95C241.278 109.122 240.974 109.359 240.725 109.648C240.476 109.937 240.287 110.272 240.168 110.635C240.049 110.997 240.002 111.379 240.031 111.76C240.087 112.528 239.836 113.287 239.333 113.871C238.829 114.454 238.115 114.814 237.347 114.871C237.244 114.878 237.142 114.906 237.05 114.952C236.957 114.999 236.874 115.063 236.807 115.142C236.739 115.221 236.689 115.313 236.657 115.412C236.626 115.51 236.614 115.614 236.623 115.718L236.83 118.529C236.842 118.702 236.785 118.873 236.672 119.004C236.559 119.136 236.398 119.217 236.225 119.231C236.068 119.243 235.913 119.198 235.787 119.103C235.66 119.01 235.573 118.873 235.539 118.719L234.951 116.027L234.379 115.138L231.357 117.005C231.357 117.005 226.463 109.474 228.817 102.637C230.154 98.7293 234.028 97.3492 235.857 97.1333C236.151 97.0965 236.433 96.9924 236.681 96.8285C236.928 96.6647 237.134 96.4458 237.283 96.1893C238.012 94.9193 239.853 92.7391 243.883 92.8873C245.023 92.8915 246.143 93.1832 247.139 93.7352C248.136 94.2873 248.978 95.0819 249.585 96.0454C249.84 96.4365 250.227 96.7231 250.675 96.8539C251.123 96.9843 251.604 96.95 252.028 96.7566C252.891 96.3565 253.843 96.1855 254.791 96.2596C255.739 96.3337 256.653 96.6507 257.443 97.1799C261.651 99.7538 259.983 107.005 255.516 107.708Z" fill="#21252B"/>
<path opacity="0.15" d="M234.239 123.554C234.469 123.593 234.705 123.581 234.929 123.517C235.153 123.453 235.36 123.34 235.535 123.186L234.049 126.276L234.239 123.554Z" fill="black"/>
<path d="M235.4 116.417C235.4 116.417 234.896 113.648 231.984 114.402C228.656 115.249 228.114 122.445 233.321 123.715C236.052 124.38 235.747 122.699 235.624 120.494L235.4 116.417Z" fill="#FC9D9D"/>
<path opacity="0.3" d="M231.525 116.214C231.758 116.069 232.021 115.98 232.294 115.955C232.567 115.93 232.843 115.969 233.098 116.069C233.353 116.169 233.581 116.327 233.765 116.53C233.948 116.734 234.082 116.978 234.154 117.242C234.396 117.885 234.467 118.579 234.362 119.258L234.311 119.88C234.283 119.946 234.235 120.002 234.172 120.038C234.11 120.074 234.038 120.089 233.967 120.08C233.895 120.072 233.829 120.04 233.777 119.99C233.725 119.94 233.691 119.875 233.68 119.804L233.731 119.177C233.8 118.607 233.744 118.029 233.566 117.484C233.528 117.302 233.444 117.133 233.324 116.991C233.204 116.85 233.05 116.74 232.877 116.673C232.704 116.606 232.517 116.583 232.332 116.606C232.148 116.629 231.973 116.698 231.822 116.806C231.744 116.834 231.659 116.831 231.584 116.798C231.509 116.766 231.448 116.707 231.413 116.633C231.379 116.558 231.374 116.474 231.398 116.395C231.423 116.317 231.476 116.251 231.546 116.21L231.525 116.214Z" fill="black"/>
<path d="M255.604 108.293L254.101 108.433C254.062 108.436 254.023 108.432 253.986 108.42C253.949 108.408 253.914 108.389 253.884 108.364C253.854 108.339 253.829 108.308 253.812 108.273C253.794 108.239 253.783 108.201 253.779 108.162C253.776 108.124 253.78 108.085 253.792 108.048C253.804 108.011 253.822 107.977 253.847 107.947C253.872 107.918 253.902 107.894 253.936 107.876C253.97 107.858 254.008 107.848 254.046 107.844L255.553 107.704C255.742 107.689 255.928 107.65 256.108 107.59C256.716 107.382 257.295 107.098 257.831 106.743C257.863 106.722 257.9 106.707 257.938 106.7C257.976 106.693 258.016 106.693 258.054 106.701C258.092 106.709 258.128 106.724 258.161 106.746C258.193 106.768 258.22 106.796 258.241 106.828C258.263 106.861 258.278 106.897 258.285 106.936C258.293 106.974 258.292 107.013 258.284 107.051C258.277 107.089 258.261 107.126 258.239 107.158C258.217 107.19 258.189 107.218 258.157 107.239C257.578 107.615 256.954 107.915 256.298 108.132C256.074 108.214 255.842 108.268 255.604 108.293Z" fill="#FC9D9D"/>
<g opacity="0.3">
<path opacity="0.3" d="M248.738 131.538H248.696C247.582 131.246 247.002 131.085 247.002 131.085C246.91 131.054 246.832 130.989 246.786 130.902C246.741 130.815 246.73 130.714 246.757 130.62C246.783 130.526 246.845 130.445 246.929 130.396C247.014 130.346 247.115 130.33 247.21 130.353C247.21 130.353 247.764 130.509 248.869 130.797C248.967 130.823 249.05 130.887 249.101 130.974C249.152 131.061 249.166 131.165 249.14 131.263C249.115 131.348 249.061 131.422 248.988 131.472C248.915 131.522 248.826 131.546 248.738 131.538Z" fill="black"/>
</g>
<path d="M245.966 120.291C246.602 120.291 247.117 119.775 247.117 119.139C247.117 118.503 246.602 117.988 245.966 117.988C245.33 117.988 244.814 118.503 244.814 119.139C244.814 119.775 245.33 120.291 245.966 120.291Z" fill="#21252B"/>
<path d="M246.469 119.021C246.607 119.021 246.719 118.909 246.719 118.771C246.719 118.633 246.607 118.521 246.469 118.521C246.331 118.521 246.219 118.633 246.219 118.771C246.219 118.909 246.331 119.021 246.469 119.021Z" fill="white"/>
<path d="M255.131 120.307C255.767 120.307 256.283 119.791 256.283 119.156C256.283 118.52 255.767 118.004 255.131 118.004C254.496 118.004 253.98 118.52 253.98 119.156C253.98 119.791 254.496 120.307 255.131 120.307Z" fill="#21252B"/>
<path d="M255.639 119.037C255.777 119.037 255.888 118.925 255.888 118.787C255.888 118.649 255.777 118.538 255.639 118.538C255.501 118.538 255.389 118.649 255.389 118.787C255.389 118.925 255.501 119.037 255.639 119.037Z" fill="white"/>
<g opacity="0.3">
<path opacity="0.3" d="M250.907 125.383L249.353 125.497C249.265 125.503 249.178 125.473 249.112 125.416C249.045 125.358 249.004 125.276 248.998 125.188C248.993 125.144 248.998 125.1 249.012 125.057C249.025 125.015 249.047 124.976 249.076 124.943C249.105 124.909 249.14 124.882 249.18 124.862C249.219 124.842 249.263 124.831 249.307 124.828L250.86 124.714C250.953 124.707 251.043 124.682 251.125 124.641C251.208 124.599 251.282 124.542 251.342 124.472C251.403 124.402 251.449 124.321 251.478 124.233C251.507 124.145 251.519 124.053 251.512 123.96C251.505 123.868 251.481 123.778 251.439 123.695C251.398 123.612 251.34 123.539 251.27 123.478C251.201 123.418 251.119 123.371 251.031 123.342C250.944 123.313 250.851 123.302 250.759 123.308C250.713 123.316 250.666 123.314 250.621 123.302C250.577 123.29 250.535 123.269 250.499 123.241C250.462 123.212 250.432 123.176 250.411 123.135C250.389 123.095 250.376 123.05 250.372 123.004C250.369 122.957 250.375 122.911 250.39 122.867C250.405 122.824 250.43 122.784 250.461 122.75C250.493 122.716 250.531 122.689 250.573 122.671C250.616 122.653 250.662 122.643 250.708 122.644C250.888 122.631 251.069 122.653 251.24 122.71C251.411 122.767 251.569 122.856 251.705 122.974C251.842 123.093 251.954 123.236 252.035 123.397C252.115 123.558 252.164 123.734 252.177 123.914C252.19 124.094 252.167 124.274 252.111 124.445C252.054 124.617 251.964 124.775 251.846 124.911C251.728 125.047 251.585 125.159 251.423 125.241C251.262 125.321 251.087 125.37 250.907 125.383Z" fill="black"/>
</g>
<path d="M305.939 265.307C305.813 265.503 305.615 265.641 305.388 265.693C305.162 265.745 304.924 265.707 304.724 265.587L299.458 262.399L294.293 262.704L299.318 263.271L304.631 267.602C304.82 267.755 304.949 267.968 304.999 268.206C305.048 268.443 305.014 268.691 304.902 268.906C304.836 269.034 304.745 269.148 304.635 269.241C304.524 269.335 304.397 269.405 304.259 269.448C304.121 269.491 303.976 269.507 303.832 269.494C303.688 269.481 303.548 269.439 303.42 269.371L297.879 266.408L294.196 266.103L297.807 267.293L302.582 270.387C302.789 270.525 302.937 270.735 302.997 270.975C303.056 271.217 303.023 271.471 302.904 271.689C302.784 271.907 302.588 272.071 302.353 272.151C302.117 272.231 301.861 272.219 301.634 272.119L296.414 269.769L292.181 269.202L298.006 271.742C298.234 271.84 298.415 272.021 298.512 272.249C298.609 272.477 298.614 272.734 298.527 272.965C298.448 273.169 298.304 273.341 298.117 273.452C297.93 273.564 297.711 273.611 297.494 273.584L290.297 272.314L286.783 273.689L285.937 274.015C284.34 274.637 282.578 274.69 280.946 274.165C279.315 273.64 277.914 272.569 276.979 271.132L276.729 270.751L217.738 229.413C215.803 228.022 214.186 226.236 212.993 224.173C211.801 222.109 211.06 219.816 210.82 217.445L207.717 186.724L206.206 171.755C206.025 169.965 206.209 168.156 206.748 166.439C207.288 164.723 208.17 163.133 209.343 161.768C210.515 160.403 211.953 159.291 213.569 158.499C215.185 157.707 216.945 157.252 218.742 157.161C220.54 157.071 222.336 157.347 224.024 157.972C225.711 158.598 227.253 159.56 228.557 160.8C229.861 162.041 230.899 163.533 231.608 165.187C232.317 166.841 232.682 168.622 232.681 170.421V212.543C232.682 213.252 232.828 213.954 233.11 214.604C233.393 215.254 233.806 215.84 234.324 216.323L282.868 262.518L290.039 260.1C290.176 260.054 290.318 260.021 290.462 260.003L297.384 259.131C297.984 259.054 298.594 259.1 299.176 259.265C299.757 259.43 300.3 259.712 300.77 260.092L305.753 264.122C305.926 264.261 306.04 264.46 306.075 264.679C306.109 264.898 306.061 265.122 305.939 265.307Z" fill="#FC9D9D"/>
<path opacity="0.1" d="M286.775 273.723L285.929 274.049C284.331 274.671 282.569 274.724 280.938 274.199C279.306 273.674 277.906 272.603 276.971 271.167L276.721 270.786L217.738 229.413C215.803 228.022 214.186 226.236 212.993 224.173C211.801 222.109 211.06 219.817 210.821 217.446L207.718 186.724L214.237 185.721L218.119 214.783C218.563 218.109 220.251 221.143 222.843 223.275L279.007 269.439C279.007 269.439 281.517 274.795 286.775 273.723Z" fill="black"/>
<path d="M234.357 166.12V195.11H206.841L204.762 167.217C204.732 166.84 204.72 166.467 204.72 166.099C204.718 164.721 204.911 163.351 205.291 162.027C206.321 158.452 208.653 155.394 211.828 153.454L212.137 153.272C214.39 151.972 216.945 151.289 219.546 151.29C222.147 151.29 224.702 151.976 226.954 153.277C229.205 154.578 231.075 156.45 232.375 158.703C233.674 160.956 234.358 163.511 234.357 166.112V166.12Z" fill="#0F55BB"/>
<path opacity="0.15" d="M218.829 192.02C216.913 192.018 215.069 191.293 213.663 189.992C212.257 188.69 211.393 186.907 211.243 184.997L209.685 164.148C209.655 163.771 209.643 163.399 209.643 163.03C209.643 161.015 210.056 159.021 210.857 157.171C211.658 155.322 212.83 153.656 214.299 152.278C213.554 152.556 212.833 152.896 212.145 153.294L211.836 153.476C208.661 155.415 206.329 158.474 205.299 162.048C204.919 163.372 204.727 164.743 204.728 166.121C204.728 166.489 204.728 166.861 204.77 167.238L206.853 195.123H234.37V192.033L218.829 192.02Z" fill="black"/>
<path d="M248.073 116.839C247.983 116.839 247.895 116.813 247.819 116.763C247.211 116.354 246.493 116.135 245.76 116.135C245.026 116.135 244.309 116.354 243.7 116.763C243.601 116.837 243.478 116.867 243.356 116.849C243.235 116.831 243.125 116.765 243.053 116.666C242.979 116.567 242.949 116.444 242.967 116.322C242.985 116.201 243.051 116.091 243.15 116.018C243.913 115.5 244.814 115.224 245.736 115.224C246.659 115.224 247.56 115.5 248.323 116.018C248.403 116.075 248.463 116.154 248.495 116.246C248.528 116.338 248.53 116.438 248.503 116.531C248.475 116.625 248.418 116.707 248.342 116.768C248.265 116.827 248.171 116.862 248.073 116.865V116.839Z" fill="#21252B"/>
<path d="M257.454 116.84C257.365 116.84 257.279 116.813 257.205 116.764C256.595 116.355 255.877 116.136 255.143 116.136C254.408 116.136 253.691 116.355 253.081 116.764C252.983 116.837 252.859 116.868 252.737 116.849C252.616 116.831 252.506 116.766 252.434 116.666C252.361 116.568 252.33 116.444 252.348 116.323C252.366 116.201 252.432 116.092 252.531 116.019C253.295 115.501 254.197 115.225 255.12 115.225C256.043 115.225 256.944 115.501 257.708 116.019C257.788 116.075 257.849 116.155 257.881 116.248C257.913 116.34 257.915 116.44 257.887 116.534C257.859 116.628 257.802 116.71 257.724 116.77C257.647 116.829 257.552 116.863 257.454 116.865V116.84Z" fill="#21252B"/>
<path d="M246.524 126.878C246.493 126.868 246.459 126.868 246.428 126.876C246.396 126.884 246.367 126.9 246.343 126.923C246.319 126.945 246.302 126.974 246.293 127.005C246.284 127.037 246.284 127.07 246.292 127.102C246.389 127.677 246.647 128.213 247.037 128.646C247.427 129.08 247.932 129.393 248.494 129.55C249.055 129.707 249.65 129.701 250.208 129.533C250.766 129.365 251.265 129.042 251.647 128.601C251.669 128.578 251.685 128.55 251.694 128.518C251.702 128.487 251.702 128.455 251.694 128.423C251.686 128.392 251.67 128.364 251.647 128.341C251.625 128.318 251.597 128.301 251.566 128.292L246.524 126.878Z" fill="white"/>
<path d="M584.737 449.068H92.4436C92.3776 449.068 92.3141 449.042 92.2671 448.996C92.2201 448.949 92.1938 448.886 92.1938 448.818C92.1938 448.75 92.2201 448.687 92.2671 448.64C92.3141 448.594 92.3776 448.568 92.4436 448.568H584.78C584.814 448.568 584.848 448.572 584.881 448.581C584.911 448.594 584.941 448.61 584.966 448.636C584.991 448.661 585.008 448.687 585.021 448.721C585.034 448.75 585.038 448.784 585.038 448.818C585.03 448.89 584.991 448.958 584.936 449C584.881 449.046 584.809 449.072 584.737 449.068Z" fill="#B1B5BA"/>
</svg>
